<svg width="922" height="598" viewBox="0 0 922 598" fill="none" xmlns="http://www.w3.org/2000/svg">
<g clip-path="url(#clip0_435_3675)">
<path d="M922 514.615H0V515.077H922V514.615Z" fill="#EBEBEB"/>
<path d="M829.616 544.324H768.543V544.786H829.616V544.324Z" fill="#EBEBEB"/>
<path d="M610.77 549.347H594.746V549.808H610.77V549.347Z" fill="#EBEBEB"/>
<path d="M766.699 527.189H731.312V527.651H766.699V527.189Z" fill="#EBEBEB"/>
<path d="M176.379 530.291H96.7363V530.753H176.379V530.291Z" fill="#EBEBEB"/>
<path d="M204.481 530.291H192.809V530.753H204.481V530.291Z" fill="#EBEBEB"/>
<path d="M415.178 538.083H242.432V538.545H415.178V538.083Z" fill="#EBEBEB"/>
<path d="M437.047 432.264H80.9706C75.162 432.264 70.4414 427.537 70.4414 421.721V-79.4569C70.4414 -85.2731 75.162 -90 80.9706 -90H437.047C442.856 -90 447.576 -85.2731 447.576 -79.4569V421.721C447.576 427.537 442.856 432.264 437.047 432.264ZM80.9706 -89.5384C75.4202 -89.5384 70.9024 -85.0146 70.9024 -79.4569V421.721C70.9024 427.279 75.4202 431.802 80.9706 431.802H437.047C442.597 431.802 447.115 427.279 447.115 421.721V-79.4569C447.115 -85.0146 442.597 -89.5384 437.047 -89.5384H80.9706Z" fill="#EBEBEB"/>
<path d="M835.904 432.264H479.828C474.019 432.264 469.299 427.537 469.299 421.721V-79.4569C469.299 -85.2731 474.019 -90 479.828 -90H835.904C841.713 -90 846.434 -85.2731 846.434 -79.4569V421.721C846.434 427.537 841.713 432.264 835.904 432.264ZM479.828 -89.5384C474.278 -89.5384 469.76 -85.0146 469.76 -79.4569V421.721C469.76 427.279 474.278 431.802 479.828 431.802H835.904C841.455 431.802 845.973 427.279 845.973 421.721V-79.4569C845.973 -85.0146 841.455 -89.5384 835.904 -89.5384H479.828Z" fill="#EBEBEB"/>
<path d="M662.014 247.085H620.893V264.608H662.014V247.085Z" fill="#FAFAFA"/>
<path d="M612.262 247.085H571.141V264.608H612.262V247.085Z" fill="#FAFAFA"/>
<path d="M562.512 247.085H521.391V264.608H562.512V247.085Z" fill="#FAFAFA"/>
<path d="M686.889 271.477H645.768V288.999H686.889V271.477Z" fill="#FAFAFA"/>
<path d="M637.139 271.477H596.018V288.999H637.139V271.477Z" fill="#FAFAFA"/>
<path d="M587.387 271.477H546.266V288.999H587.387V271.477Z" fill="#FAFAFA"/>
<path d="M537.635 271.477H496.514V288.999H537.635V271.477Z" fill="#FAFAFA"/>
<path d="M767.084 295.868H725.963V313.391H767.084V295.868Z" fill="#FAFAFA"/>
<path d="M717.334 295.868H676.213V313.391H717.334V295.868Z" fill="#FAFAFA"/>
<path d="M612.262 295.868H571.141V313.391H612.262V295.868Z" fill="#FAFAFA"/>
<path d="M562.512 295.868H521.391V313.391H562.512V295.868Z" fill="#FAFAFA"/>
<path d="M512.76 295.868H471.639V313.391H512.76V295.868Z" fill="#FAFAFA"/>
<path d="M742.209 320.241H701.088V337.764H742.209V320.241Z" fill="#FAFAFA"/>
<path d="M637.139 320.241H596.018V337.764H637.139V320.241Z" fill="#FAFAFA"/>
<path d="M587.387 320.241H546.266V337.764H587.387V320.241Z" fill="#FAFAFA"/>
<path d="M537.635 320.241H496.514V337.764H537.635V320.241Z" fill="#FAFAFA"/>
<path d="M343.555 -1.35254H302.434V16.1701H343.555V-1.35254Z" fill="#FAFAFA"/>
<path d="M293.803 -1.35254H252.682V16.1701H293.803V-1.35254Z" fill="#FAFAFA"/>
<path d="M368.43 23.0391H327.309V40.5617H368.43V23.0391Z" fill="#FAFAFA"/>
<path d="M318.68 23.0391H277.559V40.5617H318.68V23.0391Z" fill="#FAFAFA"/>
<path d="M219.178 23.0391H178.057V40.5617H219.178V23.0391Z" fill="#FAFAFA"/>
<path d="M169.426 23.0391H128.305V40.5617H169.426V23.0391Z" fill="#FAFAFA"/>
<path d="M293.803 47.4116H252.682V64.9343H293.803V47.4116Z" fill="#FAFAFA"/>
<path d="M746.709 141.377H705.588V158.9H746.709V141.377Z" fill="#FAFAFA"/>
<path d="M660.078 141.377H618.957V158.9H660.078V141.377Z" fill="#FAFAFA"/>
<path d="M771.602 165.768H730.48V183.291H771.602V165.768Z" fill="#FAFAFA"/>
<path d="M721.832 165.768H680.711V183.291H721.832V165.768Z" fill="#FAFAFA"/>
<path d="M297.326 116.764H256.205V134.286H297.326V116.764Z" fill="#FAFAFA"/>
<path d="M192.236 116.764H151.115V134.286H192.236V116.764Z" fill="#FAFAFA"/>
<path d="M322.201 141.155H281.08V158.678H322.201V141.155Z" fill="#FAFAFA"/>
<path d="M253.992 141.155H212.871V158.678H253.992V141.155Z" fill="#FAFAFA"/>
<path d="M746.709 190.141H705.588V207.664H746.709V190.141Z" fill="#FAFAFA"/>
<path d="M660.078 190.141H618.957V207.664H660.078V190.141Z" fill="#FAFAFA"/>
<path d="M194.301 47.4116H153.18V64.9343H194.301V47.4116Z" fill="#FAFAFA"/>
<path d="M776.858 -0.687988H735.736V16.8347H776.858V-0.687988Z" fill="#FAFAFA"/>
<path d="M727.108 -0.687988H685.986V16.8347H727.108V-0.687988Z" fill="#FAFAFA"/>
<path d="M751.983 23.6851H710.861V41.2077H751.983V23.6851Z" fill="#FAFAFA"/>
<path d="M553.973 -0.300293H512.852V17.2224H553.973V-0.300293Z" fill="#FAFAFA"/>
<path d="M504.223 -0.300293H463.102V17.2224H504.223V-0.300293Z" fill="#FAFAFA"/>
<path d="M578.85 24.0728H537.729V41.5954H578.85V24.0728Z" fill="#FAFAFA"/>
<path d="M529.098 24.0728H487.977V41.5954H529.098V24.0728Z" fill="#FAFAFA"/>
<path d="M479.348 24.0728H438.227V41.5954H479.348V24.0728Z" fill="#FAFAFA"/>
<path d="M603.725 48.4644H562.604V65.987H603.725V48.4644Z" fill="#FAFAFA"/>
<path d="M553.973 48.4644H512.852V65.987H553.973V48.4644Z" fill="#FAFAFA"/>
<path d="M504.223 48.4644H463.102V65.987H504.223V48.4644Z" fill="#FAFAFA"/>
<path d="M578.85 72.8374H537.729V90.3601H578.85V72.8374Z" fill="#FAFAFA"/>
<path d="M529.098 72.8374H487.977V90.3601H529.098V72.8374Z" fill="#FAFAFA"/>
<path d="M244.44 240.457H203.318V257.979H244.44V240.457Z" fill="#FAFAFA"/>
<path d="M194.67 240.457H153.549V257.979H194.67V240.457Z" fill="#FAFAFA"/>
<path d="M387.276 242.691H346.154V260.214H387.276V242.691Z" fill="#FAFAFA"/>
<path d="M269.315 264.848H228.193V282.371H269.315V264.848Z" fill="#FAFAFA"/>
<path d="M219.545 264.848H178.424V282.371H219.545V264.848Z" fill="#FAFAFA"/>
<path d="M412.152 267.082H371.031V284.605H412.152V267.082Z" fill="#FAFAFA"/>
<path d="M362.383 267.082H321.262V284.605H362.383V267.082Z" fill="#FAFAFA"/>
<path d="M494.412 188.239H453.291V205.762H494.412V188.239Z" fill="#FAFAFA"/>
<path d="M236.455 176.625H195.334V194.148H236.455V176.625Z" fill="#FAFAFA"/>
<path d="M438.336 101.752H397.215V119.275H438.336V101.752Z" fill="#FAFAFA"/>
<path d="M469.537 163.848H428.416V181.371H469.537V163.848Z" fill="#FAFAFA"/>
<path d="M519.287 163.848H478.166V181.371H519.287V163.848Z" fill="#FAFAFA"/>
<path d="M706.066 496.76H664.945V514.283H706.066V496.76Z" fill="#FAFAFA"/>
<path d="M730.942 472.369H689.82V489.891H730.942V472.369Z" fill="#FAFAFA"/>
<path d="M244.44 289.239H203.318V306.762H244.44V289.239Z" fill="#FAFAFA"/>
<path d="M194.67 289.239H153.549V306.762H194.67V289.239Z" fill="#FAFAFA"/>
<path d="M269.315 313.612H228.193V331.135H269.315V313.612Z" fill="#FAFAFA"/>
<path d="M219.545 313.612H178.424V331.135H219.545V313.612Z" fill="#FAFAFA"/>
<path d="M322.516 381.081H281.395V398.604H322.516V381.081Z" fill="#FAFAFA"/>
<path d="M272.764 381.081H231.643V398.604H272.764V381.081Z" fill="#FAFAFA"/>
<path d="M222.994 381.081H181.873V398.604H222.994V381.081Z" fill="#FAFAFA"/>
<path d="M173.242 381.081H132.121V398.604H173.242V381.081Z" fill="#FAFAFA"/>
<path d="M347.391 405.473H306.27V422.995H347.391V405.473Z" fill="#FAFAFA"/>
<path d="M297.639 405.473H256.518V422.995H297.639V405.473Z" fill="#FAFAFA"/>
<path d="M198.119 405.473H156.998V422.995H198.119V405.473Z" fill="#FAFAFA"/>
<path d="M372.266 429.845H331.145V447.368H372.266V429.845Z" fill="#FAFAFA"/>
<path d="M322.516 429.845H281.395V447.368H322.516V429.845Z" fill="#FAFAFA"/>
<path d="M272.764 429.845H231.643V447.368H272.764V429.845Z" fill="#FAFAFA"/>
<path d="M347.391 454.237H306.27V471.759H347.391V454.237Z" fill="#FAFAFA"/>
<path d="M297.639 454.237H256.518V471.759H297.639V454.237Z" fill="#FAFAFA"/>
<path d="M247.889 454.237H206.768V471.759H247.889V454.237Z" fill="#FAFAFA"/>
<path d="M659.1 379.955H617.979V397.477H659.1V379.955Z" fill="#FAFAFA"/>
<path d="M554.029 379.955H512.908V397.477H554.029V379.955Z" fill="#FAFAFA"/>
<path d="M504.277 379.955H463.156V397.477H504.277V379.955Z" fill="#FAFAFA"/>
<path d="M683.994 404.346H642.873V421.869H683.994V404.346Z" fill="#FAFAFA"/>
<path d="M578.904 404.346H537.783V421.869H578.904V404.346Z" fill="#FAFAFA"/>
<path d="M529.152 404.346H488.031V421.869H529.152V404.346Z" fill="#FAFAFA"/>
<path d="M479.402 404.346H438.281V421.869H479.402V404.346Z" fill="#FAFAFA"/>
<path d="M708.869 428.719H667.748V446.242H708.869V428.719Z" fill="#FAFAFA"/>
<path d="M659.1 428.719H617.979V446.242H659.1V428.719Z" fill="#FAFAFA"/>
<path d="M554.029 428.719H512.908V446.242H554.029V428.719Z" fill="#FAFAFA"/>
<path d="M504.277 428.719H463.156V446.242H504.277V428.719Z" fill="#FAFAFA"/>
<path d="M628.656 453.11H587.535V470.633H628.656V453.11Z" fill="#FAFAFA"/>
<path d="M578.904 453.11H537.783V470.633H578.904V453.11Z" fill="#FAFAFA"/>
<path d="M529.152 453.11H488.031V470.633H529.152V453.11Z" fill="#FAFAFA"/>
<path d="M479.402 453.11H438.281V470.633H479.402V453.11Z" fill="#FAFAFA"/>
<path d="M569.851 298.379H747.465V94.9577L569.851 94.9577V298.379Z" fill="#E0E0E0"/>
<path d="M570.182 298.379H740.955V94.9577L570.182 94.9577V298.379Z" fill="#E0E0E0"/>
<path d="M564.3 298.379H741.914V94.9577L564.3 94.9577V298.379Z" fill="#F0F0F0"/>
<path d="M572.377 289.036H734.17V101.438L572.377 101.438V289.036Z" fill="white"/>
<path d="M572.377 289.036H577.43V101.438H572.377V289.036Z" fill="#E0E0E0"/>
<path d="M576.895 236.339V241.398H734.63V236.339H576.895Z" fill="#E0E0E0"/>
<path d="M572.378 236.339L736.881 236.339V227.845L572.378 227.845V236.339Z" fill="#F0F0F0"/>
<path d="M195.278 298.379H372.893V94.9577L195.278 94.9577L195.278 298.379Z" fill="#E0E0E0"/>
<path d="M195.628 298.379H366.4V94.9577L195.628 94.9577L195.628 298.379Z" fill="#E0E0E0"/>
<path d="M189.745 298.379H367.359V94.9577L189.745 94.9577L189.745 298.379Z" fill="#F0F0F0"/>
<path d="M197.805 289.036H359.598V101.438L197.805 101.438L197.805 289.036Z" fill="white"/>
<path d="M197.805 289.036H202.857L202.857 101.438H197.805L197.805 289.036Z" fill="#E0E0E0"/>
<path d="M202.322 236.321V241.38H360.058V236.321H202.322Z" fill="#E0E0E0"/>
<path d="M197.805 236.339L362.309 236.339V227.845L197.805 227.845V236.339Z" fill="#F0F0F0"/>
<path d="M461 598C658.46 598 818.533 588.642 818.533 577.098C818.533 565.555 658.46 556.197 461 556.197C263.54 556.197 103.467 565.555 103.467 577.098C103.467 588.642 263.54 598 461 598Z" fill="#F5F5F5"/>
<path d="M164.816 529.405C164.816 529.405 162.253 510.627 150.267 508.559C138.262 506.509 141.895 497.425 138.76 493.898C135.626 490.39 127.475 500.749 134.464 510.812C141.453 520.856 135.736 517.699 138.76 527.042C141.785 536.385 165.922 544.971 164.816 529.405Z" fill="#263238"/>
<path opacity="0.2" d="M164.816 529.405C164.816 529.405 162.253 510.627 150.267 508.559C138.262 506.509 141.895 497.425 138.76 493.898C135.626 490.39 127.475 500.749 134.464 510.812C141.453 520.856 135.736 517.699 138.76 527.042C141.785 536.385 165.922 544.971 164.816 529.405Z" fill="white"/>
<path d="M164.32 541.61C164.32 541.61 155.118 522.481 159.95 491.239C164.781 460.016 182.907 447.885 167.141 413.523C151.375 379.161 133.378 354.658 142.376 330.267" stroke="#263238" stroke-width="0.9" stroke-linecap="round" stroke-linejoin="round"/>
<path d="M157.405 537.843C157.405 537.843 149.641 526.137 160.834 520.117C172.028 514.098 174.277 518.936 181.192 514.615C188.126 510.294 193.363 499.806 194.543 506.509C195.723 513.212 187.72 517.052 190.56 520.117C193.381 523.182 171.732 543.105 157.405 537.843Z" fill="#263238"/>
<path d="M139.094 340.035C139.094 340.035 131.533 317.047 148.719 316.567C165.905 316.086 146.968 337.597 139.094 340.035Z" fill="#263238"/>
<path d="M154.029 357.705C154.029 357.705 159.156 336.803 171.344 341.198C183.533 345.611 166.181 358.074 154.029 357.705Z" fill="#263238"/>
<path d="M133.34 359.515C133.34 359.515 135.184 342.823 122.239 342.49C109.294 342.158 115.066 356.819 133.34 359.515Z" fill="#263238"/>
<path d="M141.951 393.563C141.951 393.563 124.581 378.053 118.329 389.593C112.078 401.133 131.44 403.534 141.951 393.563Z" fill="#263238"/>
<path d="M172.672 390.812C172.672 390.812 175.936 365.054 189.969 373.141C204.001 381.21 184.898 393.397 172.672 390.812Z" fill="#263238"/>
<path d="M185.028 427.685C185.028 427.685 174.664 401.669 193.916 404.605C213.167 407.54 198.618 421.37 185.028 427.685Z" fill="#263238"/>
<path d="M155.486 436.973C155.486 436.973 139.222 417.788 126.811 423.881C114.383 429.956 124.543 449.03 155.486 436.973Z" fill="#263238"/>
<path d="M170.238 479.441C170.238 479.441 184.087 448.642 196.405 459.019C208.723 469.396 188.549 484.906 170.238 479.441Z" fill="#263238"/>
<path d="M150.12 477.649C150.12 477.649 153.772 453.756 140.071 455.677C126.37 457.597 129.966 472.202 150.12 477.649Z" fill="#263238"/>
<g opacity="0.2">
<path d="M139.094 340.035C139.094 340.035 131.533 317.047 148.719 316.567C165.905 316.086 146.968 337.597 139.094 340.035Z" fill="white"/>
<path d="M154.029 357.705C154.029 357.705 159.156 336.803 171.344 341.198C183.533 345.611 166.181 358.074 154.029 357.705Z" fill="white"/>
<path d="M133.34 359.515C133.34 359.515 135.184 342.823 122.239 342.49C109.294 342.158 115.066 356.819 133.34 359.515Z" fill="white"/>
<path d="M141.951 393.563C141.951 393.563 124.581 378.053 118.329 389.593C112.078 401.133 131.44 403.534 141.951 393.563Z" fill="white"/>
<path d="M172.672 390.812C172.672 390.812 175.936 365.054 189.969 373.141C204.001 381.21 184.898 393.397 172.672 390.812Z" fill="white"/>
<path d="M185.028 427.685C185.028 427.685 174.664 401.669 193.916 404.605C213.167 407.54 198.618 421.37 185.028 427.685Z" fill="white"/>
<path d="M155.486 436.973C155.486 436.973 139.222 417.788 126.811 423.881C114.383 429.956 124.543 449.03 155.486 436.973Z" fill="white"/>
<path d="M170.238 479.441C170.238 479.441 184.087 448.642 196.405 459.019C208.723 469.396 188.549 484.906 170.238 479.441Z" fill="white"/>
<path d="M150.12 477.649C150.12 477.649 153.772 453.756 140.071 455.677C126.37 457.597 129.966 472.202 150.12 477.649Z" fill="white"/>
</g>
<path d="M129.025 354.049C129.025 354.049 136.42 365.054 146.525 370.723C146.525 370.723 153.219 357.798 158.437 354.659" stroke="#263238" stroke-width="0.9" stroke-linecap="round" stroke-linejoin="round"/>
<path d="M128.602 392.012C128.602 392.012 147.392 391.402 162.273 402.666C162.273 402.666 170.534 388.651 181.377 382.244" stroke="#263238" stroke-width="0.9" stroke-linecap="round" stroke-linejoin="round"/>
<path d="M190.689 415.351C190.689 415.351 182.612 436.622 172.322 444.894C172.322 444.894 150.969 432.504 135.295 432.19" stroke="#263238" stroke-width="0.9" stroke-linecap="round" stroke-linejoin="round"/>
<path d="M141.656 463.432C141.656 463.432 152.204 484.057 160.078 488.562C160.078 488.562 167.435 478.167 183.349 473.384" stroke="#263238" stroke-width="0.9" stroke-linecap="round" stroke-linejoin="round"/>
<path d="M158.585 535.055C158.585 535.055 151.928 524.457 144.423 522.943C136.918 521.429 133.672 512.769 130.906 517.976C128.14 523.183 135.774 540.465 158.585 535.037V535.055Z" fill="#263238"/>
<path d="M131.495 576.655H186.963L190.669 531.805H127.789L131.495 576.655Z" fill="#3A37EB"/>
<path d="M126.48 540.317H191.961L192.809 530.808H125.65L126.48 540.317Z" fill="#407BFF"/>
<path opacity="0.3" d="M126.48 540.317H191.961L192.809 530.808H125.65L126.48 540.317Z" fill="#8684F9"/>
<path d="M236.677 266.491C236.88 266.269 237.12 266.085 237.378 265.956L270.662 200.093L255.357 203.066L241.951 229.378C241.951 229.378 242.117 229.415 242.191 229.47C242.707 229.784 242.818 230.523 242.486 231.003C242.172 231.464 241.932 231.963 241.656 232.443C241.896 232.591 242.117 232.775 242.357 232.904C242.744 233.108 242.891 233.643 242.818 234.049C242.725 234.474 242.393 234.825 241.951 234.917C241.803 234.954 241.656 234.991 241.508 235.028C241.508 235.028 241.453 235.028 241.416 235.046C241.379 235.046 241.324 235.083 241.306 235.083C241.047 235.176 240.808 235.286 240.586 235.434C240.531 235.471 240.476 235.489 240.42 235.526C240.328 235.6 240.236 235.656 240.144 235.729C239.941 235.877 239.757 236.062 239.591 236.228C239.48 236.339 239.388 236.431 239.296 236.542C239.259 236.597 239.203 236.653 239.166 236.69C239.001 236.911 238.816 237.114 238.669 237.336C238.3 237.834 237.949 238.351 237.599 238.868C237.433 239.127 237.175 239.275 236.898 239.33L217.26 277.865L219.178 287.799L227.9 286.1C228.232 285.288 228.619 284.494 229.264 283.884C229.559 283.608 229.891 283.386 230.223 283.164C230.223 283.091 230.223 283.035 230.223 282.961C230.444 278.474 232.288 274.246 234.464 270.369C234.243 270.018 234.188 269.538 234.427 269.131C234.741 268.596 234.833 267.987 234.759 267.377C234.593 266.177 236.142 265.716 236.714 266.454L236.677 266.491Z" fill="#3A37EB"/>
<path d="M294.044 260.601C294.026 260.878 293.952 261.136 293.823 261.395C293.307 262.503 292.33 263.26 291.278 263.832C291.057 264.146 290.836 264.46 290.615 264.792C290.486 264.977 290.32 265.088 290.135 265.162C290.08 265.328 290.006 265.512 289.969 265.679C289.803 266.269 289.103 266.528 288.568 266.362C287.978 266.177 287.738 265.512 287.885 264.958C288.07 264.312 288.31 263.666 288.586 263.038L287.535 263.241C286.927 263.352 286.373 262.946 286.244 262.373C286.226 262.281 286.244 262.207 286.244 262.133L285.617 262.263L281.45 240.696L268.136 243.281L272.304 264.848L239.333 271.255C239.112 271.366 238.909 271.532 238.688 271.661C238.706 271.716 238.724 271.772 238.743 271.827C238.964 272.418 238.817 272.99 238.245 273.304C237.802 273.544 237.139 273.378 236.862 272.954C236.235 273.471 235.682 274.061 235.166 274.708C235.553 274.615 235.958 274.708 236.272 275.022C236.659 275.428 236.622 276.222 236.161 276.591C235.866 276.831 235.571 277.071 235.276 277.33C235.516 277.68 235.516 278.197 235.276 278.548C235.276 278.548 235.258 278.585 235.239 278.604C235.239 278.659 235.202 278.696 235.184 278.751V278.788C235.184 278.862 235.184 278.917 235.184 278.991C235.184 279.268 235.184 279.527 235.184 279.804C235.129 280.302 234.944 280.764 234.575 281.115C234.188 281.484 233.672 281.669 233.156 281.761C233.119 281.761 233.082 281.761 233.045 281.761C233.082 282.315 233.156 282.85 233.285 283.386C233.543 283.884 233.727 284.42 233.875 284.974L274.24 277.145L278.961 301.555L292.698 298.896L287.978 274.505L306.823 270.849L304.463 258.644L294.044 260.675V260.601Z" fill="#3A37EB"/>
<path d="M373.962 194.129C373.667 194.388 373.353 194.628 373.058 194.886C372.634 195.256 372.229 195.625 371.841 196.031C371.694 196.179 371.528 196.419 371.344 196.567C371.307 196.603 371.288 196.64 371.251 196.659C371.159 196.77 371.085 196.862 370.993 196.973C370.256 197.877 369.131 198.265 368.061 197.73C366.992 197.194 366.604 196.031 366.918 194.923C367.102 194.277 367.268 193.612 367.453 192.966C367.397 192.874 367.287 192.818 367.25 192.707C367.102 192.431 367.029 192.117 367.029 191.803C366.992 191.507 367.029 191.193 367.139 190.898C367.195 190.676 367.287 190.455 367.397 190.233C367.01 189.864 366.66 189.439 366.402 188.885C366.383 188.83 366.365 188.775 366.346 188.738C358.767 184.694 350.137 183.475 341.157 185.211C317.923 189.716 304.203 211.523 310.473 243.872C316.743 276.222 337.598 291.307 360.833 286.802C362.972 286.396 365.019 285.823 366.973 285.122C367.6 284.198 368.246 283.294 368.873 282.37C369.942 280.782 371.915 281.299 372.727 282.518C388.345 273.803 396.459 254.471 391.369 228.177C388.401 212.889 382.168 201.46 373.98 194.129H373.962ZM358.343 274.172C342.762 277.2 329.522 266.509 324.598 241.121C319.675 215.733 327.973 200.869 343.554 197.841C352.074 196.179 359.911 198.708 366.051 205.559C366.309 205.374 366.604 205.226 366.918 205.152C368.116 204.857 369.407 205.799 369.629 206.98C369.85 208.181 369.85 209.344 369.721 210.507C372.966 215.733 375.511 222.49 377.152 230.91C382.076 256.299 373.778 271.162 358.325 274.154L358.343 274.172Z" fill="#3A37EB"/>
<path d="M474.922 225.5L470.755 203.934L457.441 206.519L461.608 228.085L423.493 235.489L459.949 163.349L444.644 166.322L430.943 193.206C430.814 196.548 430.15 199.816 428.933 203.011C428.527 204.063 427.163 203.823 426.849 203.011C426.333 205.854 425.282 208.55 423.05 210.507C422.719 210.802 422.35 210.821 422.018 210.71L406.51 241.139L408.428 251.073L431.367 246.623C433.1 244.925 436.088 244.038 438.097 243.577C440.255 243.06 442.468 242.801 444.681 242.709C446.34 242.635 448.037 242.653 449.641 243.097L463.545 240.401L468.265 264.792L482.003 262.133L477.282 237.724L496.128 234.068L493.768 221.863L474.922 225.519V225.5Z" fill="#3A37EB"/>
<path d="M221.465 166.396L219.289 155.17L241.786 150.812L240.089 142.078L217.593 146.436L215.546 135.911L241.011 130.963L239.26 121.952L202.656 129.061L205.791 145.236C206.344 145.531 206.842 145.9 207.248 146.399C207.967 147.267 208.336 148.356 208.446 149.464C208.686 151.791 208.114 154.154 208.52 156.407C208.612 156.868 208.428 157.201 208.133 157.422L212.024 177.567L249.531 170.292L247.779 161.281L221.41 166.396H221.465Z" fill="#3A37EB"/>
<path d="M287.518 146.75C293.105 142.946 295.724 137.148 294.599 130.187C294.414 130.372 294.193 130.52 293.898 130.538C293.511 130.557 292.995 130.335 292.847 129.929C292.626 129.356 292.405 128.747 292.349 128.119C292.349 128.027 292.349 127.953 292.349 127.861C292.017 127.418 291.741 126.938 291.63 126.384C291.501 125.774 291.925 125.22 292.497 125.091C292.736 125.036 292.958 125.091 293.161 125.22C289.639 117.318 281.156 113.828 270.074 115.988L249.107 120.05L251.947 134.693C252.15 134.785 252.334 134.933 252.445 135.191C254.142 138.847 255.432 142.725 255.709 146.768C255.746 147.359 255.488 147.932 254.842 148.061C254.75 148.079 254.639 148.061 254.529 148.061L258.493 168.575L269.705 166.396L267.086 152.88L277.394 150.886L289.344 162.592L301.385 160.247L287.5 146.768L287.518 146.75ZM274.499 142.152L265.372 143.925L262.108 127.012L271.235 125.239C278.095 123.91 282.152 126.347 283.185 131.683C284.199 136.945 281.359 140.804 274.518 142.134L274.499 142.152Z" fill="#3A37EB"/>
<path d="M338.394 136.872C344.166 132.939 346.803 126.901 345.401 119.626C343.299 108.75 333.895 103.599 320.968 106.11L300.002 110.172L309.388 158.678L320.599 156.499L317.981 142.983L328.289 140.989L340.238 152.695L352.279 150.35L338.394 136.872ZM325.375 132.274L316.248 134.046L312.984 117.133L322.111 115.361C322.683 115.25 323.236 115.176 323.753 115.12C323.863 115.028 323.974 114.917 324.085 114.825C324.121 114.548 324.177 114.271 324.269 114.013C324.546 113.329 325.117 112.942 325.836 112.942C326.5 112.942 327.127 113.293 327.699 113.588C327.791 113.477 327.902 113.366 328.049 113.311C328.049 112.96 328.086 112.628 328.178 112.259C328.326 111.668 329.063 111.391 329.58 111.575C330.17 111.778 330.41 112.406 330.262 112.979C330.041 113.828 330.446 114.585 330.373 115.453C330.354 115.674 330.262 115.859 330.188 116.044C332.217 117.152 333.507 119.109 334.024 121.786C335.038 127.048 332.198 130.908 325.357 132.237L325.375 132.274Z" fill="#3A37EB"/>
<path d="M391.445 96.7486C391.261 96.7855 391.058 96.8409 390.873 96.8963C390.744 96.9517 390.615 97.0071 390.486 97.0809C390.431 97.1179 390.376 97.1548 390.339 97.2102C390.173 97.3764 389.97 97.5241 389.712 97.5795C389.417 97.6533 389.122 97.561 388.882 97.4133C388.642 97.2656 388.458 96.9702 388.421 96.7117C388.366 96.4347 388.421 96.1208 388.587 95.8808C388.624 95.8254 388.698 95.77 388.734 95.7146C384.309 94.2744 379.33 93.9236 374.13 94.9391C358.843 97.9118 349.697 110.745 352.481 125.165C355.266 139.567 368.543 148.079 383.848 145.107C399.079 142.152 408.299 129.357 405.496 114.881C403.855 106.387 398.581 100.017 391.445 96.7671V96.7486ZM382.004 135.524C373.355 137.204 365.629 132.163 363.84 122.949C362.052 113.736 367.344 106.165 375.992 104.485C378.168 104.06 380.289 104.079 382.262 104.467C382.336 104.208 382.409 103.968 382.502 103.728C382.723 103.211 383.221 102.916 383.774 103.026C384.235 103.119 384.493 103.451 384.604 103.857C384.825 103.802 385.028 103.747 385.249 103.691C385.397 103.23 385.544 102.786 385.673 102.325C385.747 102.066 385.821 101.808 385.876 101.531C385.913 101.402 385.932 101.272 385.968 101.143C385.968 101.106 385.968 101.069 385.987 101.014C386.024 100.792 386.061 100.571 386.098 100.349C386.098 100.275 386.098 100.183 386.098 100.109C385.987 99.3705 386.761 98.4842 387.554 98.872C388.292 99.2228 389.011 99.5736 389.749 99.9429C390.228 100.183 390.707 100.774 390.431 101.346C390.302 101.623 390.191 101.9 390.099 102.196C390.062 102.288 390.044 102.399 390.007 102.491C390.007 102.528 390.007 102.546 390.007 102.565C390.007 102.62 390.007 102.657 389.988 102.713C389.915 103.156 389.896 103.599 389.896 104.042C389.896 105.094 389.896 106.147 389.712 107.181C389.804 107.403 389.841 107.661 389.749 107.938C389.712 108.067 389.638 108.178 389.546 108.27C391.814 110.449 393.473 113.422 394.174 117.078C395.963 126.292 390.671 133.862 382.022 135.542L382.004 135.524Z" fill="#3A37EB"/>
<path d="M454.841 99.7951C454.841 99.7951 454.712 99.7582 454.657 99.7397C454.27 99.5735 453.754 99.3704 453.458 99.0381C453.274 99.315 453.108 99.592 452.887 99.8505C452.5 100.312 451.891 100.515 451.356 100.146C450.895 99.832 450.674 99.075 451.061 98.6134C452.26 97.1732 452.739 95.4006 453.053 93.5542C449.383 86.0576 441.048 82.771 430.224 84.8759L409.258 88.9381L418.644 137.444L429.855 135.265L427.237 121.749L437.545 119.755L449.494 131.461L461.535 129.116L447.65 115.638C453.053 111.963 455.653 106.424 454.823 99.7766L454.841 99.7951ZM434.65 111.058L425.522 112.831L422.258 95.9176L431.386 94.145C438.245 92.8156 442.302 95.2529 443.335 100.589C444.349 105.851 441.509 109.71 434.668 111.04L434.65 111.058Z" fill="#3A37EB"/>
<path d="M517.187 193.372L514.402 193.908C513.241 194.129 512.761 192.744 513.462 191.987C513.499 191.95 513.536 191.913 513.572 191.876C512.78 192.227 511.968 192.578 511.157 192.892C511.065 194.092 511.083 195.292 511.12 196.511L529.302 290.476L461.922 303.549C461.959 303.678 461.977 303.807 461.977 303.955C461.94 304.509 461.369 305.081 460.797 304.971C459.691 304.767 458.603 304.564 457.496 304.417L368.284 321.736C368.284 321.884 368.228 322.032 368.136 322.179C367.804 322.752 367.417 323.287 367.011 323.804C367.048 324.155 367.011 324.506 366.901 324.783C366.071 326.795 365.444 328.9 364.227 330.747C363.877 331.264 363.342 331.578 362.752 331.725C362.364 331.818 361.959 331.762 361.59 331.633C361.166 332.556 360.871 333.516 360.668 334.495L503.615 306.743C503.615 306.743 503.707 306.614 503.762 306.559C505.422 304.841 507.727 304.287 510.014 304.324C510.862 303.383 511.821 302.533 512.89 301.924C513.904 301.352 515.121 301.093 516.191 301.647C516.947 302.035 517.408 302.718 517.74 303.475C519.141 303.29 520.543 303.216 521.981 303.18L542.302 299.228L522.497 196.899C520.487 196.123 518.625 194.96 517.224 193.354L517.187 193.372Z" fill="#3A37EB"/>
<path d="M332.4 59.4689C332.622 59.5243 332.843 59.5612 333.083 59.5981L346.415 57.0131C347.89 56.3669 349.328 55.6837 350.766 55.0743C353.477 53.9111 356.317 52.8956 359.286 52.7294C361.093 52.6371 362.808 52.9325 364.449 53.5049L479.109 31.2553L489.749 86.1868C490.228 85.4851 491.556 85.4851 491.759 86.5561C492.238 89.0118 492.865 91.5045 492.755 94.0157C492.699 95.2528 492.404 96.3976 491.943 97.4685L510.033 190.953C511.121 190.547 512.19 190.104 513.26 189.624C513.629 188.387 514.126 187.021 515.307 186.411C516.081 186.005 516.929 186.042 517.778 186.227C518.239 185.211 518.534 184.103 518.718 183.217C518.939 182.017 519.105 180.687 519.068 179.358L518.331 175.573C518.257 175.37 518.165 175.185 518.073 175C517.888 174.649 517.907 174.336 518.036 174.077L499.006 75.8098C498.895 75.8467 498.784 75.8652 498.674 75.8652C497.309 75.8837 495.963 75.4775 495.225 74.2588C494.599 73.2433 494.635 71.9138 494.764 70.769C494.93 69.3842 495.299 68.0363 495.557 66.67C495.797 65.4144 496.037 64.048 495.834 62.9402C495.742 62.4416 495.963 62.0723 496.313 61.8508L487.868 18.2749L322.535 50.3659C319.326 51.9169 316.062 53.3202 312.43 53.0063C312.024 52.9694 311.766 52.7663 311.618 52.4893L229.579 68.4056C229.487 68.8303 229.136 69.1996 228.694 69.2919L224.379 70.1228C224.342 70.769 224.176 71.4153 223.807 71.9508C223.77 72.1908 223.641 72.4862 223.457 72.6339C223.162 72.8555 222.904 73.114 222.645 73.3725C222.147 73.8341 221.686 74.3327 221.17 74.7758C220.986 74.942 220.783 75.0712 220.525 75.1082C220.138 75.182 219.75 75.0343 219.474 74.7574C219.271 74.5358 219.197 74.2219 219.197 73.9449C219.197 73.8341 219.234 73.7418 219.271 73.631C218.607 73.6126 217.943 73.5387 217.298 73.4648C216.689 73.391 216.265 72.8924 216.284 72.2831C216.302 71.7107 216.892 71.1937 217.464 71.2676C218.164 71.3599 218.865 71.4338 219.566 71.4338C219.732 71.4338 219.916 71.4338 220.082 71.4338C220.082 71.4338 220.119 71.4338 220.138 71.4338C220.138 71.4338 220.138 71.4338 220.119 71.4338C220.193 71.4338 220.285 71.4338 220.359 71.4153C220.396 71.4153 220.414 71.4153 220.451 71.4153C219.898 71.3599 219.455 71.0275 219.05 70.6583C219.013 70.6213 218.976 70.5659 218.939 70.5105L171.437 79.7243C171.659 79.7243 171.88 79.7612 172.064 79.8904C172.562 80.2043 172.691 80.9429 172.359 81.423C171.991 81.9584 171.53 82.3831 171.087 82.8263C171.05 82.8632 170.995 82.937 170.958 82.9555C170.958 82.9555 170.958 82.9555 170.976 82.9555C171.05 82.8632 171.087 82.8632 170.976 82.9555C170.903 83.0478 170.829 83.1586 170.774 83.2694C170.755 83.3433 170.718 83.3987 170.7 83.4725C170.7 83.5279 170.663 83.5833 170.645 83.6387C170.645 83.6756 170.645 83.7125 170.645 83.7495C170.534 84.5804 169.649 85.042 168.93 84.5804C168.93 84.5804 168.893 84.5619 168.874 84.5434C168.874 84.5434 168.856 84.5434 168.837 84.5434C168.745 84.5065 168.635 84.4696 168.542 84.4327C168.413 84.3957 168.303 84.3588 168.174 84.3219C168.174 84.8389 168.063 85.3374 167.786 85.799C167.565 86.1314 167.196 86.2791 166.827 86.2606C166.625 87.2946 166.311 88.3102 165.795 89.2334C165.242 90.212 164.467 90.9875 163.582 91.6338C163.6 91.6522 163.637 91.6707 163.656 91.6892C163.84 91.9292 163.988 92.1877 164.098 92.4647L234.724 78.7641C234.724 78.7641 234.779 78.6902 234.797 78.6533C235.129 78.1917 235.48 77.6932 235.941 77.3424C236.586 76.8807 237.305 76.7515 238.08 76.9361C238.651 77.0839 239.186 77.4162 239.684 77.7855L331.128 60.0413C331.386 59.6535 331.81 59.395 332.382 59.5243L332.4 59.4689Z" fill="#3A37EB"/>
<path d="M209.423 352.553L192.864 266.971C192.569 267.303 192.108 267.433 191.666 267.303C191.094 267.137 190.799 266.436 190.983 265.9C191.26 265.162 191.647 264.312 192.219 263.666L170.441 151.2C170.368 151.089 170.294 150.978 170.238 150.849C169.777 149.944 169.501 148.965 169.298 147.968C168.911 147.968 168.524 147.968 168.155 148.005C167.399 148.116 166.846 147.562 166.846 146.842C166.827 144.737 167.399 142.614 168.431 140.767L159.617 95.2711C159.47 95.0311 159.34 94.7726 159.211 94.5141C159.082 94.2371 158.935 93.9602 158.787 93.6832C158.437 93.6648 158.105 93.4986 157.921 93.1108C157.662 92.5938 157.865 91.8553 158.418 91.6337C158.953 91.4121 159.23 91.2459 159.635 90.8397C159.82 90.6551 160.152 90.1381 160.262 89.8796C160.576 89.0856 160.687 88.3101 160.705 87.4423C160.447 87.0545 160.207 86.6483 160.115 86.1867C159.986 85.5589 160.115 84.9496 160.281 84.3403C160.318 84.1741 160.41 84.0448 160.521 83.934C160.447 83.2324 160.392 82.5307 160.355 81.8291L146.248 84.5618L186.503 292.507C186.89 292.304 187.369 292.341 187.701 292.803C188.586 293.984 189.49 295.406 189.287 296.957C189.25 297.271 189.158 297.567 189.029 297.844C189.379 298.139 189.6 298.637 189.398 299.062C188.863 300.17 188.697 301.278 188.9 302.497C189.103 303.604 189.49 304.657 189.84 305.728C190.449 307.593 190.688 309.439 190.098 311.193L200.609 365.534L203.596 364.961C205.293 364.426 206.989 363.927 208.723 363.613C208.686 363.355 208.704 363.097 208.889 362.875C209.294 362.395 209.755 361.896 210.29 361.435C210.253 361.25 210.235 361.047 210.29 360.844C210.641 359.607 211.286 358.37 212.337 357.613C213.259 356.929 214.384 356.616 215.546 356.708C217.795 356.874 219.731 358.351 220.967 360.179C223.991 359.422 227.273 358.388 230.132 359.828L344.755 337.579C344.81 337.283 344.847 336.988 344.939 336.692C345.382 335.197 346.322 333.886 347.465 332.833C347.834 332.501 348.35 332.501 348.756 332.741C348.793 332.686 348.83 332.612 348.885 332.556C349.291 332.169 350.084 332.206 350.453 332.667C350.6 332.852 350.748 333.037 350.914 333.221C350.969 333.295 351.043 333.35 351.116 333.424C351.227 333.517 351.338 333.59 351.467 333.664C351.467 333.664 351.504 333.683 351.541 333.701C351.559 333.701 351.596 333.72 351.596 333.738C351.725 333.794 351.854 333.867 351.983 333.923C351.67 332.852 351.559 331.707 351.928 330.618C352.352 329.399 353.329 328.457 354.491 327.922C354.122 327.331 354.251 326.371 355.155 326.205C356.372 325.965 356.833 327.571 356.04 328.18C356.077 328.236 356.132 328.273 356.169 328.328C356.446 328.827 356.206 329.584 355.671 329.805C355.524 329.861 355.376 329.935 355.247 330.008C355.173 330.045 355.099 330.101 355.026 330.138C355.081 330.119 355.081 330.138 354.934 330.193C354.897 330.23 354.841 330.248 354.804 330.285C354.712 330.359 354.602 330.452 354.528 330.544C354.528 330.544 354.491 330.581 354.491 330.599C354.491 330.581 354.509 330.562 354.546 330.525C354.509 330.562 354.473 330.618 354.436 330.655C354.362 330.747 354.307 330.839 354.251 330.932C354.233 330.969 354.196 331.005 354.178 331.042C354.141 331.135 354.085 331.246 354.067 331.338C354.454 330.858 354.86 330.396 355.339 330.045C355.653 329.824 356.003 329.639 356.353 329.491C357.257 327.497 358.105 325.485 358.953 323.49L209.405 352.516L209.423 352.553Z" fill="#3A37EB"/>
<path d="M357.312 393.23H436.124C445.141 393.23 452.444 400.542 452.444 409.571V437.268C452.444 446.297 445.141 453.609 436.124 453.609H383.755L359.819 479.274L372.783 453.609H357.312C348.294 453.609 340.992 446.297 340.992 437.268V409.571C340.992 400.542 348.294 393.23 357.312 393.23Z" fill="#407BFF"/>
<path opacity="0.7" d="M357.312 393.23H436.124C445.141 393.23 452.444 400.542 452.444 409.571V437.268C452.444 446.297 445.141 453.609 436.124 453.609H383.755L359.819 479.274L372.783 453.609H357.312C348.294 453.609 340.992 446.297 340.992 437.268V409.571C340.992 400.542 348.294 393.23 357.312 393.23Z" fill="white"/>
<path d="M361.166 421.887C361.166 416.736 365.131 412.876 370.534 412.876C375.936 412.876 379.864 416.699 379.864 421.887C379.864 427.076 375.9 430.898 370.534 430.898C365.167 430.898 361.166 427.057 361.166 421.887ZM377.356 421.887C377.356 417.991 374.443 415.111 370.552 415.111C366.661 415.111 363.692 417.973 363.692 421.887C363.692 425.802 366.606 428.663 370.552 428.663C374.498 428.663 377.356 425.802 377.356 421.887Z" fill="#407BFF"/>
<path d="M382.113 424.029C382.113 420.059 385.045 417.234 389.047 417.234C393.048 417.234 395.962 420.059 395.962 424.029C395.962 427.999 393.048 430.842 389.047 430.842C385.045 430.842 382.113 427.999 382.113 424.029ZM393.528 424.029C393.528 421.185 391.61 419.357 389.065 419.357C386.52 419.357 384.566 421.185 384.566 424.029C384.566 426.872 386.502 428.737 389.065 428.737C391.628 428.737 393.528 426.872 393.528 424.029Z" fill="#407BFF"/>
<path d="M413.094 424.029C413.094 428.128 410.254 430.842 406.363 430.842C404.482 430.842 402.823 430.122 401.716 428.682V435.569H399.301V417.345H401.606V419.45C402.694 417.973 404.39 417.216 406.363 417.216C410.254 417.216 413.094 419.93 413.094 424.011V424.029ZM410.66 424.029C410.66 421.204 408.724 419.358 406.16 419.358C403.597 419.358 401.698 421.223 401.698 424.029C401.698 426.836 403.634 428.738 406.16 428.738C408.687 428.738 410.66 426.873 410.66 424.029Z" fill="#407BFF"/>
<path d="M414.752 429.291L415.766 427.371C416.891 428.183 418.698 428.756 420.431 428.756C422.663 428.756 423.603 428.072 423.603 426.946C423.603 423.955 415.195 426.54 415.195 421.241C415.195 418.859 417.334 417.234 420.745 417.234C422.478 417.234 424.433 417.695 425.595 418.434L424.562 420.354C423.363 419.579 422.017 419.302 420.727 419.302C418.606 419.302 417.592 420.077 417.592 421.148C417.592 424.287 426.037 421.721 426.037 426.909C426.037 429.328 423.824 430.861 420.284 430.861C418.071 430.861 415.895 430.177 414.789 429.31L414.752 429.291Z" fill="#407BFF"/>
<path d="M428.473 429.236C428.473 428.331 429.173 427.63 430.132 427.63C431.091 427.63 431.737 428.331 431.737 429.236C431.737 430.141 431.054 430.842 430.132 430.842C429.21 430.842 428.473 430.122 428.473 429.236ZM428.694 413.08H431.534L431.054 425.137H429.136L428.675 413.08H428.694Z" fill="#407BFF"/>
<path d="M816.801 105.408C816.801 111.427 783.923 116.597 736.827 118.869C735.573 118.924 734.319 118.979 733.047 119.053C731.369 119.109 729.672 119.182 727.957 119.256C720.895 119.533 713.555 119.736 705.995 119.903C704.87 119.903 703.745 119.921 702.602 119.958C701.957 119.958 701.311 119.976 700.666 119.976C694.857 120.069 688.92 120.106 682.89 120.106C671.973 120.106 661.37 119.958 651.21 119.699C648.72 119.626 646.25 119.552 643.815 119.459C625.283 118.85 608.466 117.798 594.304 116.431C566.515 113.735 548.979 109.803 548.979 105.408C548.979 98.7794 588.809 93.2031 643.594 91.3567C645.014 91.3013 646.452 91.2644 647.891 91.209C651.708 91.0982 655.58 91.0059 659.526 90.932C664.265 90.8397 669.097 90.7843 673.983 90.7474C674.352 90.7474 674.702 90.7289 675.053 90.7289H675.071C677.653 90.7104 680.271 90.7104 682.89 90.7104C696.683 90.7104 709.997 90.932 722.517 91.3752C724.527 91.4306 726.5 91.5044 728.455 91.5783C731.074 91.689 733.637 91.7998 736.181 91.9106H736.2C736.864 91.9475 737.546 91.9845 738.21 92.0214C739.943 92.0953 741.658 92.1876 743.355 92.2799C786.928 94.7172 816.801 99.6657 816.801 105.408Z" fill="#263238"/>
<path opacity="0.4" d="M816.801 105.408C816.801 111.427 783.923 116.597 736.827 118.868C735.573 118.924 734.319 118.979 733.047 119.053C731.369 119.109 729.672 119.182 727.957 119.256C720.895 119.533 713.555 119.736 705.995 119.902C704.87 119.902 703.745 119.921 702.602 119.958C701.957 119.958 701.311 119.976 700.666 119.976C694.857 120.069 688.92 120.106 682.89 120.106C671.973 120.106 661.37 119.958 651.21 119.699C648.72 119.625 646.25 119.552 643.815 119.459C625.283 118.85 608.466 117.798 594.304 116.431C566.515 113.735 548.979 109.802 548.979 105.408C548.979 103.451 552.464 101.567 558.789 99.8687C566.644 101.992 578.907 103.857 594.304 105.353C608.466 106.719 625.283 107.771 643.815 108.381C646.25 108.473 648.72 108.547 651.21 108.621C661.37 108.879 671.973 109.027 682.89 109.027C688.92 109.027 694.857 108.99 700.666 108.898C701.311 108.898 701.957 108.879 702.602 108.879C703.745 108.842 704.87 108.824 705.995 108.824C713.555 108.658 720.895 108.455 727.957 108.178C729.672 108.104 731.369 108.03 733.047 107.974C734.319 107.901 735.573 107.845 736.827 107.79C768.599 106.257 793.88 103.414 806.991 99.8687C813.316 101.586 816.801 103.432 816.801 105.408Z" fill="white"/>
<path d="M673.982 90.7471C673.853 92.8889 673.06 94.9939 671.621 96.748C670.091 98.576 668.782 99.9977 667.288 101.53C666.403 102.435 665.518 103.34 664.614 104.189C664.024 104.798 663.416 105.371 662.807 105.925C659.728 108.768 656.464 111.446 652.923 113.975C652.72 114.123 652.518 114.252 652.315 114.4C651.78 114.769 651.245 115.12 650.71 115.471C648.553 116.893 646.285 118.259 643.814 119.459C642.929 119.902 642.025 120.327 641.085 120.733C638.927 121.693 636.18 122.524 634.28 123.023C632.215 123.577 630.242 124.057 628.287 124.463C625.54 125.072 622.829 125.626 620.118 126.125C615.084 127.103 610.069 127.934 605.016 128.71C600.72 129.356 596.423 129.965 592.108 130.482C588.641 130.907 585.175 131.276 581.671 131.572C581.284 131.609 580.878 131.59 580.509 131.535C579.587 131.406 578.721 131.036 578.02 130.482C576.932 129.615 576.176 128.322 576.047 126.826C576.047 126.586 576.047 126.346 576.047 126.125C576.139 124.038 577.504 122.192 579.458 121.509C579.606 121.435 579.753 121.379 579.901 121.342C584.677 119.625 589.471 118 594.284 116.431C596.718 115.637 599.134 114.843 601.568 114.068C608.925 111.667 616.338 109.415 623.493 107.033C625.282 106.442 627.052 105.832 628.693 105.242C630.5 104.614 631.422 104.134 632.75 103.377C633.58 102.897 634.409 102.361 635.258 101.789C637.028 100.607 638.835 99.2407 640.624 97.7451C643.058 95.7324 645.492 93.5167 647.871 91.2087C651.688 91.0979 655.56 91.0056 659.506 90.9317C664.245 90.8394 669.077 90.784 673.963 90.7471H673.982Z" fill="#FFB573"/>
<path d="M674.203 98.207C674.074 98.5947 673.926 98.964 673.779 99.3333C673.631 99.7026 673.465 100.072 673.281 100.441C673.115 100.81 672.931 101.161 672.728 101.494C672.525 101.844 672.322 102.195 672.119 102.546C672.101 102.583 672.082 102.601 672.064 102.638C671.64 103.285 671.197 103.912 670.736 104.522C670.238 105.168 669.722 105.796 669.169 106.387C669.003 106.571 668.818 106.774 668.653 106.959C667.841 107.827 666.993 108.639 666.108 109.396C665.813 109.673 665.499 109.932 665.186 110.172C665.075 110.283 664.946 110.393 664.835 110.467C664.817 110.467 664.799 110.504 664.762 110.523C661.498 113.182 658.16 115.157 655.911 116.357C655.505 116.561 655.118 116.764 654.786 116.93C654.767 116.93 654.749 116.93 654.73 116.93C654.269 117.17 653.882 117.355 653.624 117.484C653.347 117.595 653.2 117.668 653.2 117.668L651.854 116.487L650.71 115.453L648.129 113.163L635.276 101.771L634.299 100.903C634.299 100.903 638.245 96.4898 643.593 91.3382C645.012 91.2828 646.451 91.2459 647.889 91.1905C651.706 91.0797 655.579 90.9874 659.525 90.9136C664.264 90.8212 669.095 90.7658 673.982 90.7289C674.35 90.7289 674.701 90.7104 675.051 90.7104C675.291 93.0739 675.088 95.585 674.203 98.1885V98.207Z" fill="#407BFF"/>
<path opacity="0.7" d="M674.221 98.207C674.092 98.5947 673.945 98.964 673.779 99.3333C673.631 99.7026 673.465 100.072 673.281 100.441C673.115 100.81 672.931 101.161 672.728 101.494C672.525 101.844 672.322 102.195 672.119 102.546C672.101 102.583 672.082 102.601 672.064 102.638C671.64 103.285 671.197 103.912 670.736 104.522C670.238 105.168 669.722 105.796 669.169 106.387C669.003 106.571 668.818 106.774 668.653 106.959C667.841 107.827 666.993 108.639 666.108 109.396C665.813 109.673 665.499 109.932 665.186 110.172C665.075 110.283 664.946 110.393 664.835 110.467C664.817 110.504 664.78 110.523 664.762 110.541C661.498 113.182 658.16 115.157 655.911 116.357C655.505 116.561 655.118 116.764 654.786 116.93C654.767 116.93 654.749 116.93 654.73 116.93C654.269 117.17 653.882 117.355 653.624 117.484C653.347 117.595 653.2 117.668 653.2 117.668L651.854 116.487L650.71 115.453L648.129 113.163L635.276 101.771L634.299 100.903C634.299 100.903 638.245 96.4898 643.593 91.3382C645.012 91.2828 646.451 91.2459 647.889 91.1905C651.706 91.0797 655.579 90.9874 659.525 90.9136C664.264 90.8212 669.095 90.7658 673.982 90.7289C674.35 90.7289 674.701 90.7104 675.051 90.7104H675.07C675.309 93.0739 675.107 95.6035 674.221 98.1885V98.207Z" fill="white"/>
<path opacity="0.1" d="M664.762 110.541C659.082 115.139 653.2 117.687 653.2 117.687L648.129 113.181C651.835 100.921 662.051 92.9629 662.051 92.9629C664.301 97.1728 665.038 106.128 664.762 110.541Z" fill="black"/>
<path d="M581.377 121.564L564.246 118.942L564.375 134.12C564.375 134.12 576.103 137.628 582.299 129.67L581.377 121.564Z" fill="#EBB376"/>
<path d="M552.592 123.023L555.413 134.323L564.375 134.12L564.246 118.942L552.592 123.023Z" fill="#EBB376"/>
<path d="M736.181 91.9105C736.034 92.2983 735.868 92.686 735.72 93.0923C735.278 94.2186 734.853 95.3634 734.448 96.5082C734.19 97.2098 733.95 97.9115 733.71 98.6316C733.452 99.3517 733.212 100.072 732.991 100.792C732.309 102.934 731.645 105.094 731 107.291C730.981 107.402 730.944 107.531 730.907 107.642C730.225 110.079 729.598 112.572 728.971 115.065C728.953 115.157 728.916 115.268 728.897 115.36C728.584 116.653 728.252 117.945 727.957 119.256C727.809 119.847 727.68 120.419 727.551 121.01C727.053 123.281 726.574 125.571 726.131 127.842C725.965 128.692 725.799 129.541 725.652 130.372C725.467 131.258 725.302 132.144 725.154 133.012C725.117 133.197 725.08 133.381 725.062 133.566C724.97 134.046 724.877 134.526 724.804 135.006C724.564 136.354 724.343 137.684 724.121 138.995C724.085 139.198 724.066 139.382 724.029 139.585C723.955 140.047 723.882 140.509 723.808 140.97C723.365 143.666 722.978 146.306 722.628 148.873C722.591 149.021 722.572 149.168 722.554 149.316C722.167 152.141 721.835 154.874 721.54 157.496C721.411 158.585 721.282 159.656 721.171 160.709C721.005 162.186 720.858 163.608 720.728 164.992C720.618 166.008 720.526 167.005 720.433 167.965C720.341 168.87 720.267 169.756 720.194 170.606C720.12 171.473 720.046 172.304 719.972 173.098C719.788 175.351 719.64 177.382 719.511 179.136C719.456 179.912 719.419 180.613 719.364 181.278C719.216 183.734 719.143 185.451 719.106 186.226C719.106 186.54 719.106 186.706 719.106 186.706L686.412 183.697L685.932 183.66L680.437 183.143L672.121 182.367H672.102L662.108 181.444L659.692 181.223L647.466 180.096C647.411 178.933 647.356 177.807 647.337 176.662V176.625C647.337 176.311 647.3 175.997 647.3 175.683C646.95 165.602 647.134 156.351 647.669 147.913C647.964 143.537 648.351 139.364 648.812 135.413C649.476 129.726 650.306 124.5 651.247 119.681C651.449 118.592 651.671 117.521 651.892 116.487C652.039 115.748 652.187 115.065 652.353 114.382C653.773 108.104 655.34 102.657 656.926 97.9853C657.811 95.3818 658.696 93.0369 659.563 90.9135C664.302 90.8212 669.133 90.7657 674.02 90.7288C674.389 90.7288 674.739 90.7104 675.089 90.7104H675.108C677.689 90.6919 680.308 90.6919 682.926 90.6919C696.72 90.6919 710.033 90.9135 722.554 91.3566C724.564 91.412 726.537 91.4859 728.492 91.5597C731.11 91.6705 733.673 91.7813 736.218 91.8921L736.181 91.9105Z" fill="#407BFF"/>
<path opacity="0.7" d="M736.18 91.9106C736.033 92.2984 735.867 92.6861 735.719 93.0924C735.277 94.2187 734.852 95.3635 734.447 96.5083C734.189 97.2099 733.949 97.9115 733.709 98.6317C733.451 99.3518 733.211 100.072 732.99 100.792C732.99 100.829 732.953 100.884 732.935 100.921C732.252 103.026 731.625 105.131 730.998 107.291C730.98 107.402 730.943 107.531 730.906 107.642C730.021 110.781 729.191 113.976 728.417 117.188C728.251 117.871 728.103 118.573 727.956 119.256C727.808 119.847 727.679 120.42 727.55 121.01C727.052 123.282 726.573 125.571 726.13 127.842C725.946 128.692 725.78 129.541 725.632 130.39C725.466 131.258 725.3 132.144 725.153 133.012C725.098 133.197 725.079 133.4 725.042 133.585C724.95 134.065 724.858 134.545 724.784 135.025C724.544 136.373 724.323 137.702 724.102 139.013C724.065 139.216 724.047 139.401 724.01 139.604C723.936 140.066 723.862 140.527 723.788 140.989C723.364 143.685 722.959 146.325 722.608 148.892C722.571 149.039 722.553 149.187 722.534 149.335C722.147 152.16 721.815 154.893 721.52 157.514C721.391 158.604 721.262 159.675 721.151 160.727C720.985 162.204 720.838 163.626 720.709 165.011C720.598 166.027 720.506 167.024 720.414 167.984C720.322 168.888 720.248 169.775 720.174 170.624C720.1 171.492 720.027 172.323 719.953 173.117C719.768 175.369 719.621 177.401 719.492 179.155C719.437 179.93 719.4 180.632 719.344 181.297C719.197 183.752 719.123 185.469 719.086 186.245C719.086 186.559 719.086 186.725 719.086 186.725L686.392 183.715L685.913 183.678L680.417 183.161L672.101 182.386H672.083L662.088 181.463L659.673 181.241L647.447 180.115C647.391 178.952 647.336 177.825 647.318 176.68V176.644C647.318 176.33 647.281 176.016 647.281 175.702C646.93 165.62 647.115 156.37 647.65 147.931C647.945 143.555 648.332 139.382 648.793 135.431C649.457 129.744 650.287 124.519 651.227 119.699C651.43 118.61 651.651 117.539 651.872 116.505C652.02 115.767 652.167 115.083 652.333 114.4C653.753 108.122 655.321 102.675 656.907 98.0039C657.792 95.4004 658.677 93.0554 659.543 90.932C664.283 90.8397 669.114 90.7843 674 90.7474C674.369 90.7474 674.72 90.7289 675.07 90.7289H675.088C677.67 90.7104 680.288 90.7104 682.907 90.7104C696.7 90.7104 710.014 90.932 722.534 91.3752C724.544 91.4306 726.517 91.5044 728.472 91.5783C731.091 91.689 733.654 91.7998 736.199 91.9106H736.18Z" fill="white"/>
<path d="M559.655 336.988C559.655 336.988 582.742 327.442 583.498 317.877C583.572 316.936 584.272 316.252 585.287 316.308L602.897 317.379C603.727 317.434 604.483 317.97 604.815 318.745L611.859 335.049L606.991 335.714L604.925 333.48L603.136 336.231C576.675 339.85 565.187 341.142 559.729 340.201C558.641 337.967 559.673 336.988 559.673 336.988H559.655Z" fill="black"/>
<path d="M667.694 241.084C666.68 240.862 666.127 240.715 666.127 240.715L583.129 230.319L607.801 318.302L582.668 320.702C582.668 320.702 525.356 210.008 548.775 194.037C572.194 178.065 644.81 195.698 644.81 195.698L647.669 173.781L719.88 179.173C731.515 251.424 677.67 243.189 667.694 241.084Z" fill="#263238"/>
<path d="M643.778 495.283C643.778 495.283 668.635 492.901 672.157 483.964C672.507 483.078 673.374 482.635 674.314 482.986L690.837 489.153C691.611 489.448 692.183 490.187 692.275 491.018L694.266 508.67L689.398 507.894L688.071 505.161L685.563 507.266C659.194 503.001 647.834 500.878 642.874 498.385C642.487 495.929 643.759 495.283 643.759 495.283H643.778Z" fill="black"/>
<path d="M720.617 205.374C720.506 205.836 717.519 219.684 713.573 239.533C713.352 240.659 713.13 241.841 712.891 243.004C711.047 252.44 709.018 263.057 707.027 274.117C704.574 287.577 702.177 301.721 700.149 315.237C697.217 334.772 695.078 353.015 694.782 366.032C693.805 408.796 692.035 493.215 692.035 493.215L669.022 489.596C669.022 489.596 656.317 399.564 656.464 355.969C656.575 328.254 663.434 271.218 668.118 235.729C670.497 217.505 672.286 204.968 672.286 204.968L698.341 205.189L720.598 205.356L720.617 205.374Z" fill="#263238"/>
<path d="M718.811 186.226L720.341 186.337L720.267 181.352L718.921 181.259L718.811 186.226Z" fill="#263238"/>
<path d="M662.051 181.813L692.846 184.214L692.993 179.247L662.309 176.865L662.051 181.813Z" fill="#263238"/>
<path d="M659.931 176.68L646.912 175.683L646.451 180.595L659.636 181.629L659.931 176.68Z" fill="#263238"/>
<path d="M716.541 181.074L695.354 179.431L695.262 184.398L716.375 186.041L716.541 181.074Z" fill="#263238"/>
<g opacity="0.2">
<path d="M718.811 186.226L720.341 186.337L720.267 181.352L718.921 181.259L718.811 186.226Z" fill="white"/>
<path d="M662.051 181.813L692.846 184.214L692.993 179.247L662.309 176.865L662.051 181.813Z" fill="white"/>
<path d="M659.931 176.68L646.912 175.683L646.451 180.595L659.636 181.629L659.931 176.68Z" fill="white"/>
<path d="M716.541 181.074L695.354 179.431L695.262 184.398L716.375 186.041L716.541 181.074Z" fill="white"/>
</g>
<path d="M671.678 178.527L671.567 181.536C671.549 182.016 671.899 182.423 672.378 182.478L680.05 183.198C680.566 183.253 681.027 182.847 681.027 182.33L681.101 179.191C681.101 178.711 680.75 178.305 680.271 178.268L672.637 177.677C672.12 177.64 671.696 178.028 671.659 178.545L671.678 178.527Z" stroke="white" stroke-width="0.73" stroke-miterlimit="10"/>
<path d="M677.689 180.428L680.031 180.668" stroke="white" stroke-width="0.73" stroke-linecap="round" stroke-linejoin="round"/>
<path opacity="0.1" d="M730.907 107.642C730.022 110.781 729.192 113.975 728.418 117.188C728.123 118.462 727.828 119.736 727.551 121.01C726.168 127.27 724.988 133.547 724.011 139.604C723.937 140.065 723.863 140.527 723.789 140.989C711.121 145.069 697.955 142.263 698.398 130.039C699.006 113.661 712.947 105.999 712.947 105.999C719.069 102.638 725.67 104.005 730.907 107.642Z" fill="black"/>
<path d="M606.971 576.655H624.028L568.561 137.757H551.504L606.971 576.655Z" fill="#263238"/>
<path opacity="0.4" d="M606.971 576.655H624.028L568.561 137.757H551.504L606.971 576.655Z" fill="white"/>
<path d="M571.308 202.825H625.521C626.812 202.825 627.992 201.976 628.638 200.61L632.086 193.298H564.725L568.173 200.61C568.818 201.976 570.017 202.825 571.289 202.825H571.308Z" fill="#263238"/>
<path opacity="0.4" d="M571.308 202.825H625.521C626.812 202.825 627.992 201.976 628.638 200.61L632.086 193.298H564.725L568.173 200.61C568.818 201.976 570.017 202.825 571.289 202.825H571.308Z" fill="white"/>
<path d="M565.647 196.788H631.183C633.128 196.788 634.705 195.209 634.705 193.261V192.467C634.705 190.519 633.128 188.94 631.183 188.94H565.647C563.702 188.94 562.125 190.519 562.125 192.467V193.261C562.125 195.209 563.702 196.788 565.647 196.788Z" fill="#263238"/>
<path opacity="0.1" d="M565.647 196.788H631.183C633.128 196.788 634.705 195.209 634.705 193.261V192.467C634.705 190.519 633.128 188.94 631.183 188.94H565.647C563.702 188.94 562.125 190.519 562.125 192.467V193.261C562.125 195.209 563.702 196.788 565.647 196.788Z" fill="white"/>
<path d="M581.212 265.549H635.426C636.716 265.549 637.897 264.699 638.542 263.333L641.99 256.021H574.629L578.077 263.333C578.723 264.699 579.921 265.549 581.194 265.549H581.212Z" fill="#263238"/>
<path opacity="0.4" d="M581.212 265.549H635.426C636.716 265.549 637.897 264.699 638.542 263.333L641.99 256.021H574.629L578.077 263.333C578.723 264.699 579.921 265.549 581.194 265.549H581.212Z" fill="white"/>
<path d="M641.085 259.511H575.568C573.613 259.511 572.046 257.923 572.046 255.985V255.209C572.046 253.252 573.632 251.682 575.568 251.682H641.085C643.04 251.682 644.607 253.27 644.607 255.209V255.985C644.607 257.942 643.022 259.511 641.085 259.511Z" fill="#263238"/>
<path opacity="0.1" d="M641.085 259.511H575.568C573.613 259.511 572.046 257.923 572.046 255.985V255.209C572.046 253.252 573.632 251.682 575.568 251.682H641.085C643.04 251.682 644.607 253.27 644.607 255.209V255.985C644.607 257.942 643.022 259.511 641.085 259.511Z" fill="white"/>
<path d="M591.095 348.602H645.308C646.599 348.602 647.779 347.752 648.425 346.386L651.873 339.074H584.512L587.96 346.386C588.605 347.752 589.804 348.602 591.076 348.602H591.095Z" fill="#263238"/>
<path opacity="0.4" d="M591.095 348.602H645.308C646.599 348.602 647.779 347.752 648.425 346.386L651.873 339.074H584.512L587.96 346.386C588.605 347.752 589.804 348.602 591.076 348.602H591.095Z" fill="white"/>
<path d="M585.434 342.545H650.97C652.915 342.545 654.492 340.966 654.492 339.019V338.225C654.492 336.277 652.915 334.698 650.97 334.698H585.434C583.489 334.698 581.912 336.277 581.912 338.225V339.019C581.912 340.966 583.489 342.545 585.434 342.545Z" fill="#263238"/>
<path opacity="0.1" d="M585.434 342.545H650.97C652.915 342.545 654.492 340.966 654.492 339.019V338.225C654.492 336.277 652.915 334.698 650.97 334.698H585.434C583.489 334.698 581.912 336.277 581.912 338.225V339.019C581.912 340.966 583.489 342.545 585.434 342.545Z" fill="white"/>
<path d="M600.978 431.654H655.191C656.482 431.654 657.662 430.805 658.308 429.438L661.756 422.126H594.395L597.843 429.438C598.488 430.805 599.687 431.654 600.959 431.654H600.978Z" fill="#263238"/>
<path opacity="0.4" d="M600.978 431.654H655.191C656.482 431.654 657.662 430.805 658.308 429.438L661.756 422.126H594.395L597.843 429.438C598.488 430.805 599.687 431.654 600.959 431.654H600.978Z" fill="white"/>
<path d="M595.317 425.598H660.853C662.798 425.598 664.375 424.019 664.375 422.071V421.277C664.375 419.329 662.798 417.75 660.853 417.75H595.317C593.372 417.75 591.795 419.329 591.795 421.277V422.071C591.795 424.019 593.372 425.598 595.317 425.598Z" fill="#263238"/>
<path opacity="0.1" d="M595.317 425.598H660.853C662.798 425.598 664.375 424.019 664.375 422.071V421.277C664.375 419.329 662.798 417.75 660.853 417.75H595.317C593.372 417.75 591.795 419.329 591.795 421.277V422.071C591.795 424.019 593.372 425.598 595.317 425.598Z" fill="white"/>
<path d="M610.882 514.707H665.096C666.386 514.707 667.566 513.857 668.212 512.491L671.66 505.179H604.299L607.747 512.491C608.392 513.857 609.591 514.707 610.863 514.707H610.882Z" fill="#263238"/>
<path opacity="0.4" d="M610.882 514.707H665.096C666.386 514.707 667.566 513.857 668.212 512.491L671.66 505.179H604.299L607.747 512.491C608.392 513.857 609.591 514.707 610.863 514.707H610.882Z" fill="white"/>
<path d="M605.202 508.65H670.738C672.683 508.65 674.26 507.071 674.26 505.124V504.33C674.26 502.382 672.683 500.803 670.738 500.803H605.202C603.257 500.803 601.68 502.382 601.68 504.33V505.124C601.68 507.071 603.257 508.65 605.202 508.65Z" fill="#263238"/>
<path opacity="0.1" d="M605.202 508.65H670.738C672.683 508.65 674.26 507.071 674.26 505.124V504.33C674.26 502.382 672.683 500.803 670.738 500.803H605.202C603.257 500.803 601.68 502.382 601.68 504.33V505.124C601.68 507.071 603.257 508.65 605.202 508.65Z" fill="white"/>
<path d="M672.821 576.655H689.878L634.411 137.757H617.354L672.821 576.655Z" fill="#263238"/>
<path opacity="0.7" d="M672.821 576.655H689.878L634.411 137.757H617.354L672.821 576.655Z" fill="white"/>
<path d="M493.75 576.655H476.693L532.142 137.757H549.199L493.75 576.655Z" fill="#263238"/>
<path opacity="0.4" d="M493.75 576.655H476.693L532.142 137.757H549.199L493.75 576.655Z" fill="white"/>
<path d="M595.245 202.826H541.031C539.741 202.826 538.56 201.977 537.915 200.61L534.467 193.298H601.828L598.38 200.61C597.734 201.977 596.536 202.826 595.263 202.826H595.245Z" fill="#263238"/>
<path opacity="0.5" d="M595.245 202.826H541.031C539.741 202.826 538.56 201.977 537.915 200.61L534.467 193.298H601.828L598.38 200.61C597.734 201.977 596.536 202.826 595.263 202.826H595.245Z" fill="white"/>
<path d="M600.905 188.922H535.37C533.424 188.922 531.848 190.501 531.848 192.449V193.243C531.848 195.191 533.424 196.77 535.37 196.77H600.905C602.851 196.77 604.427 195.191 604.427 193.243V192.449C604.427 190.501 602.851 188.922 600.905 188.922Z" fill="#263238"/>
<path opacity="0.2" d="M600.905 188.922H535.37C533.424 188.922 531.848 190.501 531.848 192.449V193.243C531.848 195.191 533.424 196.77 535.37 196.77H600.905C602.851 196.77 604.427 195.191 604.427 193.243V192.449C604.427 190.501 602.851 188.922 600.905 188.922Z" fill="white"/>
<path d="M585.36 265.549H531.147C529.856 265.549 528.676 264.7 528.03 263.333L524.582 256.021H591.943L588.495 263.333C587.85 264.7 586.651 265.549 585.379 265.549H585.36Z" fill="#263238"/>
<path opacity="0.5" d="M585.36 265.549H531.147C529.856 265.549 528.676 264.7 528.03 263.333L524.582 256.021H591.943L588.495 263.333C587.85 264.7 586.651 265.549 585.379 265.549H585.36Z" fill="white"/>
<path d="M525.485 251.664H591.002C592.957 251.664 594.524 253.252 594.524 255.191V255.966C594.524 257.923 592.938 259.493 591.002 259.493H525.485C523.53 259.493 521.963 257.905 521.963 255.966V255.191C521.963 253.234 523.549 251.664 525.485 251.664Z" fill="#263238"/>
<path opacity="0.2" d="M525.485 251.664H591.002C592.957 251.664 594.524 253.252 594.524 255.191V255.966C594.524 257.923 592.938 259.493 591.002 259.493H525.485C523.53 259.493 521.963 257.905 521.963 255.966V255.191C521.963 253.234 523.549 251.664 525.485 251.664Z" fill="white"/>
<path d="M575.458 348.602H521.244C519.954 348.602 518.773 347.752 518.128 346.386L514.68 339.074H582.041L578.593 346.386C577.947 347.752 576.749 348.602 575.476 348.602H575.458Z" fill="#263238"/>
<path opacity="0.5" d="M575.458 348.602H521.244C519.954 348.602 518.773 347.752 518.128 346.386L514.68 339.074H582.041L578.593 346.386C577.947 347.752 576.749 348.602 575.476 348.602H575.458Z" fill="white"/>
<path d="M581.118 334.717H515.583C513.637 334.717 512.061 336.296 512.061 338.243V339.037C512.061 340.985 513.637 342.564 515.583 342.564H581.118C583.064 342.564 584.64 340.985 584.64 339.037V338.243C584.64 336.296 583.064 334.717 581.118 334.717Z" fill="#263238"/>
<path opacity="0.2" d="M581.118 334.717H515.583C513.637 334.717 512.061 336.296 512.061 338.243V339.037C512.061 340.985 513.637 342.564 515.583 342.564H581.118C583.064 342.564 584.64 340.985 584.64 339.037V338.243C584.64 336.296 583.064 334.717 581.118 334.717Z" fill="white"/>
<path d="M565.575 431.654H511.362C510.071 431.654 508.891 430.805 508.245 429.438L504.797 422.126H572.158L568.71 429.438C568.065 430.805 566.866 431.654 565.594 431.654H565.575Z" fill="#263238"/>
<path opacity="0.5" d="M565.575 431.654H511.362C510.071 431.654 508.891 430.805 508.245 429.438L504.797 422.126H572.158L568.71 429.438C568.065 430.805 566.866 431.654 565.594 431.654H565.575Z" fill="white"/>
<path d="M571.236 417.769H505.7C503.755 417.769 502.178 419.348 502.178 421.296V422.09C502.178 424.037 503.755 425.616 505.7 425.616H571.236C573.181 425.616 574.758 424.037 574.758 422.09V421.296C574.758 419.348 573.181 417.769 571.236 417.769Z" fill="#263238"/>
<path opacity="0.2" d="M571.236 417.769H505.7C503.755 417.769 502.178 419.348 502.178 421.296V422.09C502.178 424.037 503.755 425.616 505.7 425.616H571.236C573.181 425.616 574.758 424.037 574.758 422.09V421.296C574.758 419.348 573.181 417.769 571.236 417.769Z" fill="white"/>
<path d="M555.69 514.707H501.477C500.186 514.707 499.006 513.857 498.36 512.491L494.912 505.179H562.273L558.825 512.491C558.18 513.857 556.981 514.707 555.709 514.707H555.69Z" fill="#263238"/>
<path opacity="0.5" d="M555.69 514.707H501.477C500.186 514.707 499.006 513.857 498.36 512.491L494.912 505.179H562.273L558.825 512.491C558.18 513.857 556.981 514.707 555.709 514.707H555.69Z" fill="white"/>
<path d="M561.351 500.822H495.815C493.87 500.822 492.293 502.401 492.293 504.348V505.142C492.293 507.09 493.87 508.669 495.815 508.669H561.351C563.296 508.669 564.873 507.09 564.873 505.142V504.348C564.873 502.401 563.296 500.822 561.351 500.822Z" fill="#263238"/>
<path opacity="0.2" d="M561.351 500.822H495.815C493.87 500.822 492.293 502.401 492.293 504.348V505.142C492.293 507.09 493.87 508.669 495.815 508.669H561.351C563.296 508.669 564.873 507.09 564.873 505.142V504.348C564.873 502.401 563.296 500.822 561.351 500.822Z" fill="white"/>
<path d="M559.58 576.655H542.523L597.991 137.757H615.048L559.58 576.655Z" fill="#263238"/>
<path opacity="0.7" d="M559.58 576.655H542.523L597.991 137.757H615.048L559.58 576.655Z" fill="white"/>
<path d="M637.138 140.01H529.043C527.752 140.01 526.572 139.161 525.927 137.794L522.479 130.482H643.703L640.255 137.794C639.609 139.161 638.411 140.01 637.138 140.01Z" fill="#263238"/>
<path opacity="0.5" d="M637.138 140.01H529.043C527.752 140.01 526.572 139.161 525.927 137.794L522.479 130.482H643.703L640.255 137.794C639.609 139.161 638.411 140.01 637.138 140.01Z" fill="white"/>
<path d="M642.8 126.106H523.401C521.456 126.106 519.879 127.685 519.879 129.633V130.427C519.879 132.375 521.456 133.954 523.401 133.954H642.8C644.745 133.954 646.322 132.375 646.322 130.427V129.633C646.322 127.685 644.745 126.106 642.8 126.106Z" fill="#263238"/>
<path opacity="0.2" d="M642.8 126.106H523.401C521.456 126.106 519.879 127.685 519.879 129.633V130.427C519.879 132.375 521.456 133.954 523.401 133.954H642.8C644.745 133.954 646.322 132.375 646.322 130.427V129.633C646.322 127.685 644.745 126.106 642.8 126.106Z" fill="white"/>
<path d="M644.7 138.164L630.519 128.174L623.881 141.819C623.881 141.819 632.806 150.202 641.915 145.845L644.7 138.182V138.164Z" fill="#EBB376"/>
<path d="M618.275 126.624L615.768 137.979L623.881 141.82L630.52 128.175L618.275 126.624Z" fill="#EBB376"/>
<path d="M741.64 106.608C738.855 110.91 736.015 115.028 733.046 119.053C730.815 122.026 728.529 124.962 726.131 127.842C725.412 128.728 724.675 129.596 723.937 130.464C722.48 132.144 721.005 133.824 719.456 135.486C717.538 137.554 715.528 139.585 713.371 141.579C712.965 141.949 712.56 142.318 712.136 142.687H712.099C710.513 144.146 708.89 145.512 707.028 146.879C704.649 148.559 702.141 150.258 698.453 151.661C697.531 152.03 696.609 152.289 695.669 152.51C694.765 152.732 693.991 152.843 693.161 152.99C691.612 153.194 690.155 153.323 688.754 153.36C685.969 153.452 683.369 153.378 680.806 153.23C675.717 152.954 670.811 152.27 665.962 151.55C659.766 150.572 653.681 149.353 647.651 147.913C645.42 147.396 643.207 146.823 640.994 146.232C639.814 145.919 638.652 145.586 637.472 145.254C635.093 144.589 633.581 142.355 633.729 139.973C633.747 139.604 633.821 139.235 633.913 138.865C634.466 136.834 636.163 135.431 638.117 135.154C638.431 135.098 638.744 135.062 639.058 135.08H639.15C639.574 135.117 640.017 135.135 640.441 135.135C643.225 135.228 646.01 135.339 648.794 135.412C655.008 135.634 661.204 135.8 667.308 135.892C671.936 135.985 676.565 135.929 680.972 135.745C683.185 135.652 685.342 135.468 687.297 135.191C689.233 134.932 691.059 134.526 691.538 134.138C692.276 133.769 693.732 132.754 695.115 131.535C696.222 130.575 697.383 129.504 698.527 128.341C698.859 128.027 699.172 127.694 699.486 127.362C700.131 126.697 700.758 125.996 701.367 125.294C702.952 123.558 704.483 121.749 706.013 119.884C706.696 119.035 707.396 118.185 708.079 117.317C711.398 113.126 714.699 108.713 717.889 104.263C720.065 101.253 722.204 98.2067 724.269 95.2155L724.38 95.0309C725.449 93.4799 726.869 92.2981 728.473 91.5596C731.092 91.6704 733.655 91.7811 736.2 91.8919H736.218C736.882 91.9289 737.564 91.9658 738.228 92.0027C738.431 92.1135 738.634 92.2427 738.837 92.3905C743.465 95.5848 744.682 101.9 741.658 106.59L741.64 106.608Z" fill="#FFB573"/>
<path d="M736.826 118.868C733.949 123.134 730.113 127.842 725.153 133.012C725.153 133.012 725.153 133.018 725.153 133.031C724.01 134.212 722.793 135.431 721.52 136.668L719.455 135.505L701.366 125.312L699.688 124.371C699.688 124.371 700.868 122.617 702.619 119.958C704.814 116.634 707.93 111.889 710.825 107.421C713.075 103.912 715.177 100.57 716.56 98.2068C718.312 95.2525 720.377 93.0368 722.535 91.375C724.545 91.4304 726.518 91.5042 728.472 91.5781C731.091 91.6889 733.654 91.7997 736.199 91.9105H736.217C736.881 91.9474 737.563 91.9843 738.227 92.0212C739.96 92.0951 741.675 92.1874 743.372 92.2797C745.695 97.8006 745.179 106.534 736.844 118.868H736.826Z" fill="#407BFF"/>
<path opacity="0.7" d="M736.826 118.868C733.949 123.134 730.113 127.842 725.153 133.012C725.153 133.012 725.153 133.018 725.153 133.031C724.01 134.212 722.793 135.431 721.52 136.668L719.455 135.505L701.366 125.312L699.688 124.371C699.688 124.371 700.868 122.617 702.619 119.958C704.814 116.634 707.93 111.889 710.825 107.421C713.075 103.912 715.177 100.57 716.56 98.2068C718.312 95.2525 720.377 93.0368 722.535 91.375C724.545 91.4304 726.518 91.5042 728.472 91.5781C731.091 91.6889 733.654 91.7997 736.199 91.9105H736.217C736.881 91.9474 737.563 91.9843 738.227 92.0212C739.96 92.0951 741.675 92.1874 743.372 92.2797C745.695 97.8006 745.179 106.534 736.844 118.868H736.826Z" fill="white"/>
<path d="M467.159 576.342C467.159 576.452 467.159 576.545 467.122 576.656C467.122 576.711 467.103 576.748 467.085 576.803C467.066 576.896 467.03 576.988 466.993 577.08C466.937 577.191 466.882 577.32 466.79 577.431C466.716 577.56 466.624 577.671 466.513 577.8C465.923 578.465 464.891 579.13 463.489 579.776C463.213 579.905 462.899 580.035 462.586 580.164C461.7 580.533 460.705 580.884 459.58 581.235C458.879 581.456 458.142 581.659 457.349 581.881C444.422 585.371 419.639 588.177 388.457 589.728C387.24 589.784 386.023 589.858 384.806 589.913C382.814 590.005 380.804 590.079 378.757 590.171C376.711 590.245 374.645 590.319 372.543 590.393C371.123 590.448 369.685 590.485 368.247 590.541C364.835 590.633 361.387 590.725 357.883 590.781C357.459 590.799 357.035 590.818 356.611 590.818C355.818 590.836 355.025 590.855 354.232 590.855C353.458 590.873 352.702 590.892 351.927 590.892C348.7 590.947 345.436 590.984 342.154 591.002C341.785 591.002 341.435 591.021 341.084 591.021H341.066C338.484 591.039 335.866 591.039 333.247 591.039C322.478 591.039 311.986 590.91 301.955 590.633C300.461 590.596 298.967 590.541 297.492 590.485C296.201 590.467 294.911 590.411 293.638 590.375C291.628 590.319 289.655 590.245 287.701 590.171C285.082 590.061 282.519 589.95 279.974 589.839H279.956C279.292 589.802 278.61 589.765 277.946 589.728C276.213 589.654 274.498 589.562 272.801 589.47C264.337 588.99 256.39 588.436 249.087 587.771C231.606 586.22 217.758 584.207 209.165 581.881C208.907 581.807 208.667 581.752 208.427 581.678C208.15 581.604 207.874 581.53 207.616 581.438C206.233 581.032 205.034 580.607 203.983 580.201C203.596 580.035 203.227 579.887 202.895 579.721C202.287 579.425 201.752 579.148 201.291 578.853C201.106 578.742 200.94 578.631 200.793 578.502C200.645 578.391 200.516 578.299 200.387 578.188C200.24 578.059 200.111 577.93 200 577.8C199.889 577.69 199.797 577.56 199.723 577.45C199.576 577.228 199.484 577.025 199.428 576.803C199.428 576.748 199.391 576.674 199.373 576.6C199.373 576.508 199.373 576.434 199.373 576.342C199.373 570.322 232.252 565.152 279.347 562.881C280.601 562.826 281.855 562.77 283.128 562.696C284.806 562.641 286.502 562.567 288.217 562.493C290.78 562.401 293.38 562.309 296.036 562.216C297.419 562.18 298.838 562.124 300.258 562.087C303.522 561.995 306.823 561.921 310.179 561.847H310.714C311.654 561.847 312.613 561.829 313.572 561.792C314.217 561.792 314.863 561.773 315.508 561.773C318.422 561.718 321.354 561.699 324.322 561.681H324.341C324.618 561.681 324.913 561.662 325.189 561.681C327.863 561.644 330.555 561.644 333.266 561.644C344.182 561.644 354.785 561.792 364.946 562.05C367.435 562.124 369.906 562.198 372.34 562.29C373.391 562.327 374.442 562.364 375.475 562.401H375.512C375.604 562.401 375.696 562.401 375.789 562.42C376.95 562.456 378.075 562.493 379.218 562.549C379.974 562.567 380.712 562.604 381.468 562.641C383.441 562.715 385.377 562.807 387.295 562.9C389.139 562.992 390.965 563.084 392.772 563.177C403.319 563.749 413.093 564.469 421.833 565.318C449.622 568.014 467.159 571.947 467.159 576.342Z" fill="#263238"/>
<path opacity="0.4" d="M199.336 576.36C199.336 570.341 232.214 565.171 279.31 562.9C280.564 562.844 281.818 562.789 283.09 562.715C284.768 562.66 286.465 562.586 288.18 562.512C295.242 562.235 302.582 562.032 310.142 561.866C311.267 561.866 312.392 561.847 313.535 561.81C314.18 561.81 314.826 561.792 315.471 561.792C321.28 561.7 327.217 561.663 333.247 561.663C344.164 561.663 354.767 561.81 364.927 562.069C367.417 562.143 369.888 562.217 372.322 562.309C390.854 562.918 407.671 563.971 421.833 565.337C449.622 568.033 467.158 571.966 467.158 576.36C467.158 578.317 463.673 580.201 457.348 581.9C449.493 579.776 437.23 577.911 421.833 576.416C407.671 575.049 390.854 573.997 372.322 573.387C369.888 573.295 367.417 573.221 364.927 573.147C354.767 572.889 344.164 572.741 333.247 572.741C327.217 572.741 321.28 572.778 315.471 572.87C314.826 572.87 314.18 572.889 313.535 572.889C312.392 572.926 311.267 572.944 310.142 572.944C302.582 573.111 295.242 573.314 288.18 573.591C286.465 573.664 284.768 573.738 283.09 573.794C281.818 573.868 280.564 573.923 279.31 573.978C247.538 575.511 222.257 578.354 209.146 581.9C202.821 580.182 199.336 578.336 199.336 576.36Z" fill="white"/>
<path d="M321.981 569.528C320.967 570.747 320.027 571.799 319.086 572.815C318.607 573.313 318.146 573.812 317.648 574.31C316.763 575.215 315.896 576.101 314.992 576.969C314.402 577.56 313.794 578.133 313.185 578.705C310.106 581.548 306.824 584.244 303.283 586.755C303.08 586.885 302.896 587.032 302.693 587.162C302.177 587.531 301.642 587.882 301.089 588.251C299.927 589.026 298.728 589.784 297.493 590.485C296.202 590.467 294.911 590.411 293.639 590.374C291.629 590.319 289.656 590.245 287.701 590.171C285.083 590.06 282.52 589.95 279.975 589.839H279.956C279.293 589.802 278.61 589.765 277.946 589.728C276.213 589.654 274.498 589.562 272.802 589.47C264.338 588.99 256.39 588.436 249.088 587.771C250.047 587.457 251.006 587.162 251.965 586.848C259.322 584.447 266.753 582.195 273.908 579.831C275.697 579.222 277.467 578.631 279.108 578.022C280.915 577.394 281.837 576.914 283.165 576.157C283.976 575.677 284.825 575.141 285.673 574.569C286.115 574.273 286.576 573.96 287.037 573.609H287.056C288.384 572.667 289.711 571.615 291.02 570.525C293.676 568.346 296.276 565.946 298.857 563.453C299.318 562.992 299.779 562.549 300.24 562.087C301.07 561.293 301.882 560.499 302.675 559.668L306.289 555.92L306.51 555.68C308.852 553.243 312.097 552.19 315.214 552.541C317.39 552.781 319.51 553.723 321.207 555.366C323.014 557.12 324.065 559.354 324.305 561.681H324.323C324.637 564.414 323.862 567.275 322 569.528H321.981Z" fill="#FFB573"/>
<path d="M317.851 548.349C307.562 548.109 284.678 573.719 284.678 573.719L303.579 590.485C303.579 590.485 320.451 583.173 324.6 571.005C328.731 558.837 317.851 548.349 317.851 548.349Z" fill="#407BFF"/>
<path opacity="0.7" d="M324.6 571.005C322.885 575.99 319.068 580.163 315.141 583.339C309.461 587.937 303.579 590.485 303.579 590.485L298.508 585.98L284.678 573.719C284.678 573.719 307.562 548.109 317.851 548.349C317.851 548.349 328.731 558.837 324.6 571.005Z" fill="white"/>
<path opacity="0.1" d="M315.141 583.321C309.461 587.919 303.579 590.467 303.579 590.467L298.508 585.962C302.214 573.701 312.43 565.743 312.43 565.743C314.68 569.953 315.417 578.908 315.141 583.321Z" fill="black"/>
<path d="M388.918 559.133V559.17H388.9C388.789 559.428 388.678 559.65 388.586 559.89C388.291 560.536 388.015 561.182 387.738 561.847C387.572 562.198 387.424 562.53 387.295 562.899C387.259 562.973 387.222 563.047 387.203 563.121C387.074 563.398 386.945 563.675 386.853 563.97C386.539 564.709 386.244 565.466 385.949 566.242C385.58 567.202 385.23 568.18 384.88 569.159C384.843 569.196 384.843 569.251 384.824 569.288C384.566 569.99 384.327 570.691 384.087 571.412C383.829 572.132 383.589 572.852 383.368 573.572C383.331 573.646 383.312 573.72 383.294 573.793C383.073 574.458 382.851 575.123 382.649 575.788C382.224 577.191 381.8 578.594 381.395 580.034L381.284 580.422C380.399 583.561 379.569 586.755 378.795 589.968C378.795 590.042 378.758 590.097 378.758 590.171C376.711 590.245 374.646 590.319 372.543 590.393C371.124 590.448 369.685 590.485 368.247 590.541C364.835 590.633 361.387 590.725 357.884 590.781C357.459 590.799 357.035 590.818 356.611 590.818C355.818 590.836 355.025 590.854 354.232 590.854C353.458 590.873 352.702 590.891 351.927 590.891C348.7 590.947 345.437 590.984 342.154 591.002C341.785 591.002 341.435 591.021 341.085 591.021H341.066C338.485 591.039 335.866 591.039 333.248 591.039C322.479 591.039 311.986 590.91 301.955 590.633C302.047 590.171 302.139 589.71 302.232 589.267C302.305 588.953 302.361 588.676 302.435 588.399C302.49 588.122 302.545 587.845 302.619 587.568C302.656 587.42 302.693 587.291 302.711 587.162C303.541 583.524 304.408 580.164 305.293 577.062C305.625 575.991 305.92 574.975 306.233 573.96C306.344 573.646 306.436 573.332 306.547 573.018C306.786 572.242 307.026 571.522 307.266 570.821C307.266 570.821 307.272 570.821 307.284 570.821C307.413 570.414 307.542 570.045 307.671 569.676C307.874 569.085 308.077 568.513 308.28 567.977C308.501 567.331 308.741 566.703 308.962 566.112C309.165 565.577 309.368 565.06 309.571 564.561C309.958 563.601 310.327 562.715 310.677 561.865C311.525 559.834 312.355 558.062 313.13 556.492C313.277 556.234 313.406 555.957 313.535 555.698C313.812 555.163 314.07 554.683 314.31 554.203C314.642 553.612 314.937 553.058 315.213 552.559C315.269 552.467 315.324 552.393 315.361 552.301C315.674 551.729 315.988 551.212 316.265 550.768C316.541 550.325 316.781 549.956 316.984 549.624C317.482 548.885 317.777 548.46 317.85 548.368C317.85 548.368 317.85 548.368 317.869 548.368C317.869 548.368 325.54 547.537 334.336 547.833C335.497 547.851 336.678 547.925 337.876 547.999C338.964 548.073 340.163 548.183 341.417 548.331C344.054 548.627 346.986 549.033 350.028 549.531C351.946 549.845 353.882 550.178 355.818 550.528C357.755 550.879 359.672 551.23 361.516 551.599C361.848 551.655 362.162 551.729 362.494 551.802H362.512C363.969 552.079 365.389 552.375 366.698 552.652C367.601 552.836 368.487 553.04 369.39 553.261C369.851 553.372 370.294 553.464 370.736 553.593C371.179 553.704 371.621 553.815 372.082 553.926C373.76 554.35 375.42 554.812 376.987 555.255C377.504 555.403 378.02 555.569 378.518 555.717C379.514 556.012 380.473 556.308 381.376 556.603C382.28 556.88 383.11 557.157 383.884 557.416C386.742 558.357 388.642 559.059 388.918 559.151H388.937L388.918 559.133Z" fill="#407BFF"/>
<path opacity="0.7" d="M388.938 559.133V559.169H388.901C388.79 559.428 388.679 559.65 388.587 559.89C388.292 560.536 387.997 561.182 387.739 561.847C387.573 562.198 387.426 562.548 387.297 562.899C387.297 562.899 387.241 563.047 387.223 563.121C387.094 563.398 386.965 563.675 386.872 563.97C386.559 564.709 386.264 565.466 385.969 566.241C385.6 567.201 385.231 568.18 384.899 569.159C384.862 569.196 384.862 569.251 384.844 569.288C384.586 569.99 384.346 570.691 384.106 571.411C383.848 572.131 383.609 572.852 383.387 573.572C383.369 573.609 383.35 573.664 383.332 573.701C383.313 573.738 383.313 573.756 383.313 573.793C383.092 574.458 382.871 575.123 382.668 575.787C382.244 577.191 381.82 578.594 381.414 580.034L381.304 580.422C380.418 583.561 379.589 586.755 378.814 589.968C378.814 590.042 378.777 590.097 378.777 590.171C376.73 590.245 374.665 590.319 372.563 590.393C371.143 590.448 369.705 590.485 368.266 590.54C364.855 590.633 361.407 590.725 357.903 590.78C357.479 590.799 357.055 590.817 356.631 590.817C355.838 590.836 355.045 590.854 354.252 590.854C353.478 590.873 352.722 590.891 351.947 590.891C348.72 590.947 345.456 590.984 342.174 591.002C341.805 591.002 341.455 591.02 341.104 591.02H341.086C338.504 591.039 335.886 591.039 333.267 591.039C322.498 591.039 312.006 590.91 301.975 590.633C302.067 590.171 302.159 589.728 302.251 589.285C302.38 588.676 302.491 588.122 302.62 587.568C302.657 587.42 302.694 587.291 302.712 587.161C303.542 583.524 304.409 580.163 305.294 577.061C305.626 575.99 305.921 574.975 306.234 573.959C306.345 573.646 306.437 573.332 306.548 573.018C306.787 572.242 307.027 571.522 307.267 570.82C307.267 570.82 307.273 570.82 307.285 570.82C307.414 570.414 307.544 570.045 307.673 569.676C307.875 569.085 308.078 568.512 308.281 567.977C308.502 567.331 308.742 566.703 308.963 566.112C309.166 565.577 309.369 565.06 309.572 564.561C309.959 563.601 310.328 562.715 310.678 561.865C311.527 559.834 312.356 558.062 313.112 556.492C313.26 556.234 313.389 555.957 313.518 555.698C313.795 555.163 314.053 554.683 314.293 554.203C314.624 553.612 314.919 553.058 315.196 552.559C315.251 552.467 315.307 552.393 315.344 552.301C315.676 551.728 315.989 551.211 316.247 550.768C316.524 550.325 316.763 549.956 316.966 549.623C317.464 548.885 317.759 548.46 317.833 548.368H317.851C317.851 548.368 325.523 547.518 334.318 547.814C335.48 547.832 336.66 547.906 337.859 547.98C338.947 548.054 340.145 548.165 341.399 548.312C344.036 548.608 346.968 549.014 350.011 549.513C351.929 549.827 353.865 550.159 355.801 550.51C357.737 550.861 359.655 551.211 361.499 551.581C361.831 551.636 362.144 551.71 362.476 551.784H362.495C363.951 552.061 365.371 552.356 366.681 552.633C367.584 552.818 368.469 553.021 369.373 553.242C369.834 553.353 370.276 553.445 370.719 553.575C371.18 553.667 371.623 553.778 372.065 553.889C373.743 554.313 375.403 554.775 376.97 555.237C377.486 555.384 378.003 555.55 378.501 555.698C379.496 555.994 380.455 556.289 381.359 556.584C382.262 556.861 383.092 557.138 383.867 557.397C386.725 558.339 388.624 559.04 388.901 559.133H388.919H388.938Z" fill="white"/>
<path d="M355.578 525.786C355.578 525.786 356.15 545.432 358.03 548.331C359.893 551.248 366.624 552.596 366.624 552.596C366.624 552.596 350.452 560.647 342.891 559.151C335.331 557.656 331.68 547.74 331.68 547.74C331.68 547.74 336.972 547.962 338.244 547.223C339.517 546.485 337.249 533.504 337.249 533.504L355.596 525.786H355.578Z" fill="#EBB376"/>
<path opacity="0.2" d="M338.779 538.379C338.779 538.379 338.116 539.357 338.116 539.339C337.71 536.292 337.23 533.504 337.23 533.504L355.56 525.786C355.56 525.786 356.039 541.61 357.478 546.965C349.991 547.74 341.324 542.238 338.779 538.379Z" fill="black"/>
<path d="M349.309 492.791C354.325 495.394 361.498 503.906 353.624 506.694C345.75 509.482 340.679 488.304 349.309 492.791Z" fill="#263238"/>
<path d="M327.014 525.454C331.975 531.03 335.681 535.517 339.554 538.656C342.91 541.37 346.395 543.069 350.968 543.623C365.831 545.469 375.272 529.737 369.334 516.757C368.689 515.335 367.914 513.876 367.011 512.418C360.557 501.745 348.11 490.538 335.792 494.194C321.98 498.293 317.813 515.077 327.033 525.435L327.014 525.454Z" fill="#EBB376"/>
<path d="M333.081 524.586L333.671 526.765C333.671 526.765 335.478 533.19 339.535 538.674C342.891 541.389 346.376 543.087 350.949 543.641C365.812 545.488 375.253 529.756 369.316 516.776C368.67 515.354 367.896 513.895 366.992 512.437C366.992 512.437 368.117 517.625 367.14 520.062C367.14 520.062 361.608 518.641 358.897 520.912C358.897 520.912 353.015 519.305 348.036 525.528C348.036 525.528 340.568 530.79 333.062 524.605L333.081 524.586Z" fill="#263238"/>
<path opacity="0.5" d="M333.081 524.586L333.671 526.765C333.671 526.765 335.478 533.19 339.535 538.674C342.891 541.389 346.376 543.087 350.949 543.641C365.812 545.488 375.253 529.756 369.316 516.776C368.67 515.354 367.896 513.895 366.992 512.437C366.992 512.437 368.117 517.625 367.14 520.062C367.14 520.062 361.608 518.641 358.897 520.912C358.897 520.912 353.015 519.305 348.036 525.528C348.036 525.528 340.568 530.79 333.062 524.605L333.081 524.586Z" fill="white"/>
<path d="M311.581 518.548C304.887 512.935 311.23 504.792 318.237 502.004C319.159 501.635 319.768 501.099 320.155 500.49L328.472 513.286C327.716 513.655 326.96 513.987 326.259 514.264C326.259 514.264 335.958 522.887 335.018 531.436C321.428 535.203 308.335 528.205 311.581 518.529V518.548Z" fill="#263238"/>
<path d="M329.947 537.88C333.008 540.004 336.77 540.502 339.775 539.856C340.126 539.782 340.458 539.69 340.734 539.579C343.537 536.92 335.239 527.633 334.815 527.153H334.797C332.916 526.672 331.016 526.783 329.467 527.873C325.816 530.421 326.425 535.425 329.928 537.862L329.947 537.88Z" fill="#EBB376"/>
<path d="M345.861 515.354C346.561 516.24 347.594 516.591 348.166 516.129C348.737 515.668 348.645 514.578 347.944 513.673C347.244 512.787 346.211 512.436 345.639 512.898C345.068 513.36 345.16 514.449 345.861 515.354Z" fill="#263238"/>
<path d="M355.837 507.359C356.538 508.245 357.571 508.596 358.142 508.134C358.714 507.672 358.622 506.583 357.921 505.678C357.22 504.792 356.188 504.441 355.616 504.903C355.044 505.364 355.136 506.454 355.837 507.359Z" fill="#263238"/>
<path d="M352.996 510.332C352.996 510.332 358.915 513.618 363.027 514.227C362.566 516.849 359.395 518.308 359.395 518.308L352.996 510.332Z" fill="#D58745"/>
<path d="M341.895 508.467C341.692 508.578 341.563 508.799 341.545 509.039C341.508 512.012 339.479 513.378 339.461 513.378C339.148 513.581 339.055 513.988 339.258 514.302C339.461 514.615 339.867 514.708 340.162 514.505C340.272 514.431 342.817 512.732 342.854 509.039C342.854 508.67 342.559 508.375 342.209 508.375C342.098 508.375 341.987 508.411 341.877 508.467H341.895Z" fill="#263238"/>
<path d="M357.459 500.121C357.552 500.047 357.644 499.936 357.681 499.807C357.81 499.456 357.625 499.068 357.275 498.957C353.827 497.72 351.411 499.567 351.282 499.64C350.987 499.862 350.932 500.287 351.153 500.582C351.374 500.878 351.78 500.933 352.075 500.711C352.167 500.638 354.066 499.234 356.832 500.213C357.054 500.287 357.275 500.25 357.459 500.121Z" fill="#263238"/>
<path d="M359.285 530.476C359.617 530.347 359.967 530.181 360.318 529.996L361.221 522.721C361.221 522.721 360.797 522.721 360.115 522.74C357.81 522.795 352.72 523.257 351.356 525.86C351.245 526.1 351.116 526.414 351.005 526.802C350.747 527.836 350.655 529.276 351.245 530.347C352.075 531.916 354.288 532.71 359.266 530.458L359.285 530.476Z" fill="#263238"/>
<path d="M351.023 526.802L359.893 523.589L360.133 522.74C357.828 522.795 352.738 523.257 351.374 525.86C351.263 526.1 351.134 526.414 351.023 526.802Z" fill="white"/>
<path d="M359.285 530.476C357.718 527.91 353.587 529.221 351.264 530.365C352.093 531.935 354.306 532.729 359.285 530.476Z" fill="#DE5753"/>
<path d="M311.58 518.548C308.851 516.462 304.868 510.775 310.216 504.866C315.563 498.976 321.907 496.04 318.919 491.756C315.932 487.473 321.224 483.817 324.931 486.623C324.931 486.623 333.69 472.258 339.923 483.281C339.923 483.281 346.026 479.071 349.769 483.595C353.513 488.119 354.306 492.957 349.382 494.692C344.459 496.428 343.979 496.945 344.846 499.807C345.694 502.669 341.416 505.032 341.416 505.032C341.416 505.032 344.072 503.334 342.559 501.284C342.559 501.284 342.209 504.921 337.433 506.435C332.657 507.95 334.87 512.584 334.87 512.584C334.87 512.584 332.325 513.581 331.754 509.925C331.754 509.925 329.762 518.087 324.488 520.099C319.214 522.13 315.729 521.669 311.617 518.511L311.58 518.548Z" fill="#263238"/>
<path opacity="0.1" d="M381.284 580.422C380.399 583.561 379.569 586.755 378.795 589.968C378.795 590.042 378.758 590.098 378.758 590.171C376.711 590.245 374.646 590.319 372.544 590.393C371.124 590.448 369.685 590.485 368.247 590.541C364.836 590.633 361.387 590.725 357.884 590.781C357.46 590.799 357.036 590.818 356.611 590.818C355.819 590.836 355.026 590.855 354.233 590.855C353.458 590.873 352.702 590.892 351.928 590.892C354.731 585.518 358.751 581.992 361.185 580.201C362.475 579.24 363.324 578.779 363.324 578.779C364.946 577.893 366.606 577.339 368.247 577.062C372.839 576.305 377.43 577.745 381.284 580.422Z" fill="black"/>
<path d="M393.656 574.311C393.564 576.065 393.029 577.819 392.015 579.388C389.673 583.007 387.295 586.516 384.805 589.913C382.814 590.005 380.804 590.079 378.757 590.171C376.71 590.245 374.645 590.319 372.543 590.393C371.123 590.448 369.684 590.485 368.246 590.541C364.835 590.633 361.386 590.725 357.883 590.781C358.086 590.559 358.252 590.338 358.436 590.116C361.755 585.925 365.056 581.512 368.246 577.062C369.15 575.825 370.035 574.569 370.901 573.313C372.174 571.541 373.391 569.768 374.608 568.014L374.737 567.83C377.485 563.841 382.519 562.383 386.852 563.971C387.663 564.266 388.456 564.672 389.194 565.189C392.273 567.313 393.841 570.821 393.656 574.311Z" fill="#FFB573"/>
<path d="M394.708 574.366C394.118 578.613 392.237 583.709 388.457 589.728C387.24 589.784 386.023 589.857 384.806 589.913C382.814 590.005 380.804 590.079 378.758 590.171C376.711 590.245 374.645 590.319 372.543 590.393C371.123 590.448 369.685 590.485 368.247 590.541C364.835 590.633 361.387 590.725 357.884 590.781C357.459 590.799 357.035 590.818 356.611 590.818C355.818 590.836 355.025 590.854 354.232 590.854C356.279 587.752 358.806 583.875 361.184 580.201C362.807 577.653 364.356 575.215 365.61 573.147C366.089 572.372 366.532 571.633 366.919 570.987C369.353 566.869 372.414 564.173 375.475 562.401H375.494C382.206 558.542 388.9 559.188 388.9 559.188C390.319 560.111 391.702 561.422 392.772 563.176C394.432 565.854 395.372 569.565 394.708 574.366Z" fill="#407BFF"/>
<path opacity="0.7" d="M394.708 574.366C394.118 578.613 392.237 583.709 388.457 589.728C387.24 589.784 386.023 589.857 384.806 589.913C382.814 590.005 380.804 590.079 378.758 590.171C376.711 590.245 374.645 590.319 372.543 590.393C371.123 590.448 369.685 590.485 368.247 590.541C364.835 590.633 361.387 590.725 357.884 590.781C357.459 590.799 357.035 590.818 356.611 590.818C355.818 590.836 355.025 590.854 354.232 590.854C356.279 587.752 358.806 583.875 361.184 580.201C362.807 577.653 364.356 575.215 365.61 573.147C366.089 572.372 366.532 571.633 366.919 570.987C369.353 566.869 372.414 564.173 375.475 562.401H375.494C382.206 558.542 388.9 559.188 388.9 559.188C390.319 560.111 391.702 561.422 392.772 563.176C394.432 565.854 395.372 569.565 394.708 574.366Z" fill="white"/>
</g>
<defs>
<clipPath id="clip0_435_3675">
<rect width="922" height="598" fill="white"/>
</clipPath>
</defs>
</svg>
